<?xml version="1.0" encoding="UTF-8"?>
<!DOCTYPE svg PUBLIC "-//W3C//DTD SVG 1.1//EN"
    "http://www.w3.org/Graphics/SVG/1.1/DTD/svg11.dtd"><svg xmlns="http://www.w3.org/2000/svg" height="600.0000" stroke-opacity="1" viewBox="0 0 800 600" font-size="1" width="800.0000" xmlns:xlink="http://www.w3.org/1999/xlink" stroke="rgb(0,0,0)" version="1.1"><defs></defs><g stroke-linejoin="bevel" stroke-opacity="0.0" fill-opacity="1.0" stroke="rgb(0,0,0)" stroke-width="0.0" fill="rgb(255,255,255)" stroke-linecap="butt" stroke-miterlimit="10.0"><path d="M 0.0000,0.0000 v 600.0000 h 800.0000 v -600.0000 Z"/></g><g stroke-linejoin="bevel" stroke-opacity="0.0" fill-opacity="1.0" stroke="rgb(0,0,0)" stroke-width="0.0" fill="rgb(0,0,0)" stroke-linecap="butt" stroke-miterlimit="10.0"><path d="M 382.1740,14.1016 ZM 383.5139,11.8070 c 0.5236,0.4004 1.0010,0.6006 1.0010 0.6006c 0.4774,0.2002 0.9702,0.2002 0.9702 0.2002c 0.5082,0.0000 0.7392,-0.1694 0.7392 -0.1694c 0.2310,-0.1694 0.2310,-0.4774 0.2310 -0.4774c 0.0000,-0.1848 -0.1309,-0.3311 -0.1309 -0.3311c -0.1309,-0.1463 -0.3542,-0.2695 -0.3542 -0.2695c -0.2233,-0.1232 -0.5005,-0.2233 -0.5005 -0.2233c -0.2772,-0.1001 -0.5698,-0.2233 -0.5698 -0.2233c -0.3542,-0.1386 -0.7084,-0.3234 -0.7084 -0.3234c -0.3542,-0.1848 -0.6468,-0.4543 -0.6468 -0.4543c -0.2926,-0.2695 -0.4774,-0.6314 -0.4774 -0.6314c -0.1848,-0.3619 -0.1848,-0.8393 -0.1848 -0.8393c 0.0000,-0.5236 0.2079,-0.9702 0.2079 -0.9702c 0.2079,-0.4466 0.5929,-0.7546 0.5929 -0.7546c 0.3850,-0.3080 0.9240,-0.4851 0.9240 -0.4851c 0.5390,-0.1771 1.2012,-0.1771 1.2012 -0.1771c 0.8778,0.0000 1.5400,0.3003 1.5400 0.3003c 0.6622,0.3003 1.1550,0.6699 1.1550 0.6699l -1.0164,1.3552 c -0.4158,-0.3080 -0.8162,-0.4774 -0.8162 -0.4774c -0.4004,-0.1694 -0.8008,-0.1694 -0.8008 -0.1694c -0.8624,-0.0000 -0.8624,0.6006 -0.8624 0.6006c 0.0000,0.1848 0.1232,0.3157 0.1232 0.3157c 0.1232,0.1309 0.3311,0.2387 0.3311 0.2387c 0.2079,0.1078 0.4774,0.2079 0.4774 0.2079c 0.2695,0.1001 0.5621,0.2079 0.5621 0.2079c 0.3696,0.1386 0.7315,0.3157 0.7315 0.3157c 0.3619,0.1771 0.6622,0.4389 0.6622 0.4389c 0.3003,0.2618 0.4851,0.6391 0.4851 0.6391c 0.1848,0.3773 0.1848,0.9009 0.1848 0.9009c 0.0000,0.5236 -0.2002,0.9702 -0.2002 0.9702c -0.2002,0.4466 -0.6006,0.7777 -0.6006 0.7777c -0.4004,0.3311 -0.9856,0.5236 -0.9856 0.5236c -0.5852,0.1925 -1.3552,0.1925 -1.3552 0.1925c -0.7546,-0.0000 -1.5477,-0.2926 -1.5477 -0.2926c -0.7931,-0.2926 -1.3783,-0.7700 -1.3783 -0.7700ZM 388.9964,14.1016 ZM 389.5508,10.2823 c 0.0000,-0.9548 0.3080,-1.7017 0.3080 -1.7017c 0.3080,-0.7469 0.8239,-1.2551 0.8239 -1.2551c 0.5159,-0.5082 1.1935,-0.7777 1.1935 -0.7777c 0.6776,-0.2695 1.4014,-0.2695 1.4014 -0.2695c 0.7238,0.0000 1.3937,0.2695 1.3937 0.2695c 0.6699,0.2695 1.1858,0.7777 1.1858 0.7777c 0.5159,0.5082 0.8239,1.2551 0.8239 1.2551c 0.3080,0.7469 0.3080,1.7017 0.3080 1.7017c 0.0000,0.9548 -0.3080,1.7017 -0.3080 1.7017c -0.3080,0.7469 -0.8239,1.2551 -0.8239 1.2551c -0.5159,0.5082 -1.1858,0.7777 -1.1858 0.7777c -0.6699,0.2695 -1.3937,0.2695 -1.3937 0.2695c -0.7238,-0.0000 -1.4014,-0.2695 -1.4014 -0.2695c -0.6776,-0.2695 -1.1935,-0.7777 -1.1935 -0.7777c -0.5159,-0.5082 -0.8239,-1.2551 -0.8239 -1.2551c -0.3080,-0.7469 -0.3080,-1.7017 -0.3080 -1.7017ZM 389.5508,10.2823 ZM 391.8763,10.2823 c 0.0000,1.0010 0.3465,1.5862 0.3465 1.5862c 0.3465,0.5852 1.0549,0.5852 1.0549 0.5852c 0.6930,0.0000 1.0472,-0.5852 1.0472 -0.5852c 0.3542,-0.5852 0.3542,-1.5862 0.3542 -1.5862c 0.0000,-1.0010 -0.3542,-1.5862 -0.3542 -1.5862c -0.3542,-0.5852 -1.0472,-0.5852 -1.0472 -0.5852c -0.7084,-0.0000 -1.0549,0.5852 -1.0549 0.5852c -0.3465,0.5852 -0.3465,1.5862 -0.3465 1.5862ZM 397.5436,14.1016 ZM 398.5447,6.4630 h 1.8480 l 0.1540,0.9856 h 0.0616 c 0.4774,-0.4774 1.0164,-0.8239 1.0164 -0.8239c 0.5390,-0.3465 1.2936,-0.3465 1.2936 -0.3465c 0.8162,0.0000 1.3167,0.3311 1.3167 0.3311c 0.5005,0.3311 0.7931,0.9471 0.7931 0.9471c 0.5082,-0.5236 1.0703,-0.9009 1.0703 -0.9009c 0.5621,-0.3773 1.3321,-0.3773 1.3321 -0.3773c 1.2320,0.0000 1.8095,0.8239 1.8095 0.8239c 0.5775,0.8239 0.5775,2.2562 0.5775 2.2562v 4.7433 h -2.2639 v -4.4507 c 0.0000,-0.8316 -0.2233,-1.1396 -0.2233 -1.1396c -0.2233,-0.3080 -0.7161,-0.3080 -0.7161 -0.3080c -0.5698,-0.0000 -1.3090,0.7392 -1.3090 0.7392v 5.1591 h -2.2639 v -4.4507 c 0.0000,-0.8316 -0.2233,-1.1396 -0.2233 -1.1396c -0.2233,-0.3080 -0.7161,-0.3080 -0.7161 -0.3080c -0.5852,-0.0000 -1.2936,0.7392 -1.2936 0.7392v 5.1591 h -2.2639 v -7.6386 ZM 410.7418,14.1016 ZM 411.2962,10.2823 c 0.0000,-0.9240 0.3080,-1.6709 0.3080 -1.6709c 0.3080,-0.7469 0.8085,-1.2628 0.8085 -1.2628c 0.5005,-0.5159 1.1473,-0.7931 1.1473 -0.7931c 0.6468,-0.2772 1.3398,-0.2772 1.3398 -0.2772c 0.8162,0.0000 1.4245,0.2772 1.4245 0.2772c 0.6083,0.2772 1.0164,0.7700 1.0164 0.7700c 0.4081,0.4928 0.6083,1.1627 0.6083 1.1627c 0.2002,0.6699 0.2002,1.4553 0.2002 1.4553c 0.0000,0.3080 -0.0308,0.5621 -0.0308 0.5621c -0.0308,0.2541 -0.0616,0.3927 -0.0616 0.3927h -4.5739 c 0.1540,0.8778 0.6853,1.2705 0.6853 1.2705c 0.5313,0.3927 1.3013,0.3927 1.3013 0.3927c 0.8162,0.0000 1.6478,-0.5082 1.6478 -0.5082l 0.7546,1.3706 c -0.5852,0.4004 -1.3013,0.6314 -1.3013 0.6314c -0.7161,0.2310 -1.4091,0.2310 -1.4091 0.2310c -0.8162,-0.0000 -1.5246,-0.2695 -1.5246 -0.2695c -0.7084,-0.2695 -1.2320,-0.7854 -1.2320 -0.7854c -0.5236,-0.5159 -0.8162,-1.2551 -0.8162 -1.2551c -0.2926,-0.7392 -0.2926,-1.6940 -0.2926 -1.6940ZM 411.2962,10.2823 ZM 416.2243,9.4969 c 0.0000,-0.6622 -0.2926,-1.0780 -0.2926 -1.0780c -0.2926,-0.4158 -0.9856,-0.4158 -0.9856 -0.4158c -0.5390,-0.0000 -0.9471,0.3619 -0.9471 0.3619c -0.4081,0.3619 -0.5313,1.1319 -0.5313 1.1319h 2.7567 Z"/></g><g stroke-linejoin="miter" stroke-opacity="1.0" fill-opacity="0.0" stroke="rgb(211,211,211)" stroke-width="0.9999999999999997" fill="rgb(0,0,0)" stroke-dashoffset="0.0" stroke-linecap="butt" stroke-miterlimit="10.0" stroke-dasharray="4.999999999999998,4.999999999999998"><path d="M 34.3697,35.0000 v 515.0000 "/></g><g stroke-linejoin="miter" stroke-opacity="1.0" fill-opacity="0.0" stroke="rgb(211,211,211)" stroke-width="0.9999999999999997" fill="rgb(0,0,0)" stroke-dashoffset="0.0" stroke-linecap="butt" stroke-miterlimit="10.0" stroke-dasharray="4.999999999999998,4.999999999999998"><path d="M 159.4949,35.0000 v 515.0000 "/></g><g stroke-linejoin="miter" stroke-opacity="1.0" fill-opacity="0.0" stroke="rgb(211,211,211)" stroke-width="0.9999999999999997" fill="rgb(0,0,0)" stroke-dashoffset="0.0" stroke-linecap="butt" stroke-miterlimit="10.0" stroke-dasharray="4.999999999999998,4.999999999999998"><path d="M 284.6201,35.0000 v 515.0000 "/></g><g stroke-linejoin="miter" stroke-opacity="1.0" fill-opacity="0.0" stroke="rgb(211,211,211)" stroke-width="0.9999999999999997" fill="rgb(0,0,0)" stroke-dashoffset="0.0" stroke-linecap="butt" stroke-miterlimit="10.0" stroke-dasharray="4.999999999999998,4.999999999999998"><path d="M 409.7453,35.0000 v 515.0000 "/></g><g stroke-linejoin="miter" stroke-opacity="1.0" fill-opacity="0.0" stroke="rgb(211,211,211)" stroke-width="0.9999999999999997" fill="rgb(0,0,0)" stroke-dashoffset="0.0" stroke-linecap="butt" stroke-miterlimit="10.0" stroke-dasharray="4.999999999999998,4.999999999999998"><path d="M 534.8704,35.0000 v 515.0000 "/></g><g stroke-linejoin="miter" stroke-opacity="1.0" fill-opacity="0.0" stroke="rgb(211,211,211)" stroke-width="0.9999999999999997" fill="rgb(0,0,0)" stroke-dashoffset="0.0" stroke-linecap="butt" stroke-miterlimit="10.0" stroke-dasharray="4.999999999999998,4.999999999999998"><path d="M 659.9956,35.0000 v 515.0000 "/></g><g stroke-linejoin="miter" stroke-opacity="1.0" fill-opacity="0.0" stroke="rgb(211,211,211)" stroke-width="0.9999999999999997" fill="rgb(0,0,0)" stroke-dashoffset="0.0" stroke-linecap="butt" stroke-miterlimit="10.0" stroke-dasharray="4.999999999999998,4.999999999999998"><path d="M 785.1208,35.0000 v 515.0000 "/></g><g stroke-linejoin="miter" stroke-opacity="1.0" fill-opacity="0.0" stroke="rgb(211,211,211)" stroke-width="0.9999999999999997" fill="rgb(0,0,0)" stroke-dashoffset="0.0" stroke-linecap="butt" stroke-miterlimit="10.0" stroke-dasharray="4.999999999999998,4.999999999999998"><path d="M 34.3697,550.0000 h 750.7511 "/></g><g stroke-linejoin="miter" stroke-opacity="1.0" fill-opacity="0.0" stroke="rgb(211,211,211)" stroke-width="0.9999999999999997" fill="rgb(0,0,0)" stroke-dashoffset="0.0" stroke-linecap="butt" stroke-miterlimit="10.0" stroke-dasharray="4.999999999999998,4.999999999999998"><path d="M 34.3697,421.2500 h 750.7511 "/></g><g stroke-linejoin="miter" stroke-opacity="1.0" fill-opacity="0.0" stroke="rgb(211,211,211)" stroke-width="0.9999999999999997" fill="rgb(0,0,0)" stroke-dashoffset="0.0" stroke-linecap="butt" stroke-miterlimit="10.0" stroke-dasharray="4.999999999999998,4.999999999999998"><path d="M 34.3697,292.5000 h 750.7511 "/></g><g stroke-linejoin="miter" stroke-opacity="1.0" fill-opacity="0.0" stroke="rgb(211,211,211)" stroke-width="0.9999999999999997" fill="rgb(0,0,0)" stroke-dashoffset="0.0" stroke-linecap="butt" stroke-miterlimit="10.0" stroke-dasharray="4.999999999999998,4.999999999999998"><path d="M 34.3697,163.7500 h 750.7511 "/></g><g stroke-linejoin="miter" stroke-opacity="1.0" fill-opacity="0.0" stroke="rgb(211,211,211)" stroke-width="0.9999999999999997" fill="rgb(0,0,0)" stroke-dashoffset="0.0" stroke-linecap="butt" stroke-miterlimit="10.0" stroke-dasharray="4.999999999999998,4.999999999999998"><path d="M 34.3697,35.0000 h 750.7511 "/></g><g stroke-linejoin="round" stroke-opacity="1.0" fill-opacity="0.0" stroke="rgb(0,0,255)" stroke-width="0.9999999999999997" fill="rgb(0,0,0)" stroke-linecap="round" stroke-miterlimit="10.0"><defs><clipPath id="myClip1"><path d="M 34.3697,35.0000 v 515.0000 h 750.7511 v -515.0000 Z"/></clipPath></defs><g clip-path="url(#myClip1)"><path d="M 34.3697,517.8125 l 75.0751,-90.1250 l 675.6759,-392.6875 "/></g></g><g stroke-linejoin="miter" stroke-opacity="1.0" fill-opacity="0.0" stroke="rgb(0,0,0)" stroke-width="0.9999999999999997" fill="rgb(0,0,0)" stroke-linecap="square" stroke-miterlimit="10.0"><path d="M 34.3697,550.0000 v -515.0000 "/></g><g stroke-linejoin="miter" stroke-opacity="1.0" fill-opacity="0.0" stroke="rgb(0,0,0)" stroke-width="0.9999999999999997" fill="rgb(0,0,0)" stroke-linecap="butt" stroke-miterlimit="10.0"><path d="M 34.3697,550.0000 h 2.0000 "/></g><g stroke-linejoin="miter" stroke-opacity="1.0" fill-opacity="0.0" stroke="rgb(0,0,0)" stroke-width="0.9999999999999997" fill="rgb(0,0,0)" stroke-linecap="butt" stroke-miterlimit="10.0"><path d="M 34.3697,537.1250 h 2.0000 "/></g><g stroke-linejoin="miter" stroke-opacity="1.0" fill-opacity="0.0" stroke="rgb(0,0,0)" stroke-width="0.9999999999999997" fill="rgb(0,0,0)" stroke-linecap="butt" stroke-miterlimit="10.0"><path d="M 34.3697,524.2500 h 2.0000 "/></g><g stroke-linejoin="miter" stroke-opacity="1.0" fill-opacity="0.0" stroke="rgb(0,0,0)" stroke-width="0.9999999999999997" fill="rgb(0,0,0)" stroke-linecap="butt" stroke-miterlimit="10.0"><path d="M 34.3697,511.3750 h 2.0000 "/></g><g stroke-linejoin="miter" stroke-opacity="1.0" fill-opacity="0.0" stroke="rgb(0,0,0)" stroke-width="0.9999999999999997" fill="rgb(0,0,0)" stroke-linecap="butt" stroke-miterlimit="10.0"><path d="M 34.3697,498.5000 h 2.0000 "/></g><g stroke-linejoin="miter" stroke-opacity="1.0" fill-opacity="0.0" stroke="rgb(0,0,0)" stroke-width="0.9999999999999997" fill="rgb(0,0,0)" stroke-linecap="butt" stroke-miterlimit="10.0"><path d="M 34.3697,485.6250 h 2.0000 "/></g><g stroke-linejoin="miter" stroke-opacity="1.0" fill-opacity="0.0" stroke="rgb(0,0,0)" stroke-width="0.9999999999999997" fill="rgb(0,0,0)" stroke-linecap="butt" stroke-miterlimit="10.0"><path d="M 34.3697,472.7500 h 2.0000 "/></g><g stroke-linejoin="miter" stroke-opacity="1.0" fill-opacity="0.0" stroke="rgb(0,0,0)" stroke-width="0.9999999999999997" fill="rgb(0,0,0)" stroke-linecap="butt" stroke-miterlimit="10.0"><path d="M 34.3697,459.8750 h 2.0000 "/></g><g stroke-linejoin="miter" stroke-opacity="1.0" fill-opacity="0.0" stroke="rgb(0,0,0)" stroke-width="0.9999999999999997" fill="rgb(0,0,0)" stroke-linecap="butt" stroke-miterlimit="10.0"><path d="M 34.3697,447.0000 h 2.0000 "/></g><g stroke-linejoin="miter" stroke-opacity="1.0" fill-opacity="0.0" stroke="rgb(0,0,0)" stroke-width="0.9999999999999997" fill="rgb(0,0,0)" stroke-linecap="butt" stroke-miterlimit="10.0"><path d="M 34.3697,434.1250 h 2.0000 "/></g><g stroke-linejoin="miter" stroke-opacity="1.0" fill-opacity="0.0" stroke="rgb(0,0,0)" stroke-width="0.9999999999999997" fill="rgb(0,0,0)" stroke-linecap="butt" stroke-miterlimit="10.0"><path d="M 34.3697,421.2500 h 2.0000 "/></g><g stroke-linejoin="miter" stroke-opacity="1.0" fill-opacity="0.0" stroke="rgb(0,0,0)" stroke-width="0.9999999999999997" fill="rgb(0,0,0)" stroke-linecap="butt" stroke-miterlimit="10.0"><path d="M 34.3697,408.3750 h 2.0000 "/></g><g stroke-linejoin="miter" stroke-opacity="1.0" fill-opacity="0.0" stroke="rgb(0,0,0)" stroke-width="0.9999999999999997" fill="rgb(0,0,0)" stroke-linecap="butt" stroke-miterlimit="10.0"><path d="M 34.3697,395.5000 h 2.0000 "/></g><g stroke-linejoin="miter" stroke-opacity="1.0" fill-opacity="0.0" stroke="rgb(0,0,0)" stroke-width="0.9999999999999997" fill="rgb(0,0,0)" stroke-linecap="butt" stroke-miterlimit="10.0"><path d="M 34.3697,382.6250 h 2.0000 "/></g><g stroke-linejoin="miter" stroke-opacity="1.0" fill-opacity="0.0" stroke="rgb(0,0,0)" stroke-width="0.9999999999999997" fill="rgb(0,0,0)" stroke-linecap="butt" stroke-miterlimit="10.0"><path d="M 34.3697,369.7500 h 2.0000 "/></g><g stroke-linejoin="miter" stroke-opacity="1.0" fill-opacity="0.0" stroke="rgb(0,0,0)" stroke-width="0.9999999999999997" fill="rgb(0,0,0)" stroke-linecap="butt" stroke-miterlimit="10.0"><path d="M 34.3697,356.8750 h 2.0000 "/></g><g stroke-linejoin="miter" stroke-opacity="1.0" fill-opacity="0.0" stroke="rgb(0,0,0)" stroke-width="0.9999999999999997" fill="rgb(0,0,0)" stroke-linecap="butt" stroke-miterlimit="10.0"><path d="M 34.3697,344.0000 h 2.0000 "/></g><g stroke-linejoin="miter" stroke-opacity="1.0" fill-opacity="0.0" stroke="rgb(0,0,0)" stroke-width="0.9999999999999997" fill="rgb(0,0,0)" stroke-linecap="butt" stroke-miterlimit="10.0"><path d="M 34.3697,331.1250 h 2.0000 "/></g><g stroke-linejoin="miter" stroke-opacity="1.0" fill-opacity="0.0" stroke="rgb(0,0,0)" stroke-width="0.9999999999999997" fill="rgb(0,0,0)" stroke-linecap="butt" stroke-miterlimit="10.0"><path d="M 34.3697,318.2500 h 2.0000 "/></g><g stroke-linejoin="miter" stroke-opacity="1.0" fill-opacity="0.0" stroke="rgb(0,0,0)" stroke-width="0.9999999999999997" fill="rgb(0,0,0)" stroke-linecap="butt" stroke-miterlimit="10.0"><path d="M 34.3697,305.3750 h 2.0000 "/></g><g stroke-linejoin="miter" stroke-opacity="1.0" fill-opacity="0.0" stroke="rgb(0,0,0)" stroke-width="0.9999999999999997" fill="rgb(0,0,0)" stroke-linecap="butt" stroke-miterlimit="10.0"><path d="M 34.3697,292.5000 h 2.0000 "/></g><g stroke-linejoin="miter" stroke-opacity="1.0" fill-opacity="0.0" stroke="rgb(0,0,0)" stroke-width="0.9999999999999997" fill="rgb(0,0,0)" stroke-linecap="butt" stroke-miterlimit="10.0"><path d="M 34.3697,279.6250 h 2.0000 "/></g><g stroke-linejoin="miter" stroke-opacity="1.0" fill-opacity="0.0" stroke="rgb(0,0,0)" stroke-width="0.9999999999999997" fill="rgb(0,0,0)" stroke-linecap="butt" stroke-miterlimit="10.0"><path d="M 34.3697,266.7500 h 2.0000 "/></g><g stroke-linejoin="miter" stroke-opacity="1.0" fill-opacity="0.0" stroke="rgb(0,0,0)" stroke-width="0.9999999999999997" fill="rgb(0,0,0)" stroke-linecap="butt" stroke-miterlimit="10.0"><path d="M 34.3697,253.8750 h 2.0000 "/></g><g stroke-linejoin="miter" stroke-opacity="1.0" fill-opacity="0.0" stroke="rgb(0,0,0)" stroke-width="0.9999999999999997" fill="rgb(0,0,0)" stroke-linecap="butt" stroke-miterlimit="10.0"><path d="M 34.3697,241.0000 h 2.0000 "/></g><g stroke-linejoin="miter" stroke-opacity="1.0" fill-opacity="0.0" stroke="rgb(0,0,0)" stroke-width="0.9999999999999997" fill="rgb(0,0,0)" stroke-linecap="butt" stroke-miterlimit="10.0"><path d="M 34.3697,228.1250 h 2.0000 "/></g><g stroke-linejoin="miter" stroke-opacity="1.0" fill-opacity="0.0" stroke="rgb(0,0,0)" stroke-width="0.9999999999999997" fill="rgb(0,0,0)" stroke-linecap="butt" stroke-miterlimit="10.0"><path d="M 34.3697,215.2500 h 2.0000 "/></g><g stroke-linejoin="miter" stroke-opacity="1.0" fill-opacity="0.0" stroke="rgb(0,0,0)" stroke-width="0.9999999999999997" fill="rgb(0,0,0)" stroke-linecap="butt" stroke-miterlimit="10.0"><path d="M 34.3697,202.3750 h 2.0000 "/></g><g stroke-linejoin="miter" stroke-opacity="1.0" fill-opacity="0.0" stroke="rgb(0,0,0)" stroke-width="0.9999999999999997" fill="rgb(0,0,0)" stroke-linecap="butt" stroke-miterlimit="10.0"><path d="M 34.3697,189.5000 h 2.0000 "/></g><g stroke-linejoin="miter" stroke-opacity="1.0" fill-opacity="0.0" stroke="rgb(0,0,0)" stroke-width="0.9999999999999997" fill="rgb(0,0,0)" stroke-linecap="butt" stroke-miterlimit="10.0"><path d="M 34.3697,176.6250 h 2.0000 "/></g><g stroke-linejoin="miter" stroke-opacity="1.0" fill-opacity="0.0" stroke="rgb(0,0,0)" stroke-width="0.9999999999999997" fill="rgb(0,0,0)" stroke-linecap="butt" stroke-miterlimit="10.0"><path d="M 34.3697,163.7500 h 2.0000 "/></g><g stroke-linejoin="miter" stroke-opacity="1.0" fill-opacity="0.0" stroke="rgb(0,0,0)" stroke-width="0.9999999999999997" fill="rgb(0,0,0)" stroke-linecap="butt" stroke-miterlimit="10.0"><path d="M 34.3697,150.8750 h 2.0000 "/></g><g stroke-linejoin="miter" stroke-opacity="1.0" fill-opacity="0.0" stroke="rgb(0,0,0)" stroke-width="0.9999999999999997" fill="rgb(0,0,0)" stroke-linecap="butt" stroke-miterlimit="10.0"><path d="M 34.3697,138.0000 h 2.0000 "/></g><g stroke-linejoin="miter" stroke-opacity="1.0" fill-opacity="0.0" stroke="rgb(0,0,0)" stroke-width="0.9999999999999997" fill="rgb(0,0,0)" stroke-linecap="butt" stroke-miterlimit="10.0"><path d="M 34.3697,125.1250 h 2.0000 "/></g><g stroke-linejoin="miter" stroke-opacity="1.0" fill-opacity="0.0" stroke="rgb(0,0,0)" stroke-width="0.9999999999999997" fill="rgb(0,0,0)" stroke-linecap="butt" stroke-miterlimit="10.0"><path d="M 34.3697,112.2500 h 2.0000 "/></g><g stroke-linejoin="miter" stroke-opacity="1.0" fill-opacity="0.0" stroke="rgb(0,0,0)" stroke-width="0.9999999999999997" fill="rgb(0,0,0)" stroke-linecap="butt" stroke-miterlimit="10.0"><path d="M 34.3697,99.3750 h 2.0000 "/></g><g stroke-linejoin="miter" stroke-opacity="1.0" fill-opacity="0.0" stroke="rgb(0,0,0)" stroke-width="0.9999999999999997" fill="rgb(0,0,0)" stroke-linecap="butt" stroke-miterlimit="10.0"><path d="M 34.3697,86.5000 h 2.0000 "/></g><g stroke-linejoin="miter" stroke-opacity="1.0" fill-opacity="0.0" stroke="rgb(0,0,0)" stroke-width="0.9999999999999997" fill="rgb(0,0,0)" stroke-linecap="butt" stroke-miterlimit="10.0"><path d="M 34.3697,73.6250 h 2.0000 "/></g><g stroke-linejoin="miter" stroke-opacity="1.0" fill-opacity="0.0" stroke="rgb(0,0,0)" stroke-width="0.9999999999999997" fill="rgb(0,0,0)" stroke-linecap="butt" stroke-miterlimit="10.0"><path d="M 34.3697,60.7500 h 2.0000 "/></g><g stroke-linejoin="miter" stroke-opacity="1.0" fill-opacity="0.0" stroke="rgb(0,0,0)" stroke-width="0.9999999999999997" fill="rgb(0,0,0)" stroke-linecap="butt" stroke-miterlimit="10.0"><path d="M 34.3697,47.8750 h 2.0000 "/></g><g stroke-linejoin="miter" stroke-opacity="1.0" fill-opacity="0.0" stroke="rgb(0,0,0)" stroke-width="0.9999999999999997" fill="rgb(0,0,0)" stroke-linecap="butt" stroke-miterlimit="10.0"><path d="M 34.3697,35.0000 h 2.0000 "/></g><g stroke-linejoin="miter" stroke-opacity="1.0" fill-opacity="0.0" stroke="rgb(0,0,0)" stroke-width="0.9999999999999997" fill="rgb(0,0,0)" stroke-linecap="butt" stroke-miterlimit="10.0"><path d="M 34.3697,550.0000 h 5.0000 "/></g><g stroke-linejoin="miter" stroke-opacity="1.0" fill-opacity="0.0" stroke="rgb(0,0,0)" stroke-width="0.9999999999999997" fill="rgb(0,0,0)" stroke-linecap="butt" stroke-miterlimit="10.0"><path d="M 34.3697,421.2500 h 5.0000 "/></g><g stroke-linejoin="miter" stroke-opacity="1.0" fill-opacity="0.0" stroke="rgb(0,0,0)" stroke-width="0.9999999999999997" fill="rgb(0,0,0)" stroke-linecap="butt" stroke-miterlimit="10.0"><path d="M 34.3697,292.5000 h 5.0000 "/></g><g stroke-linejoin="miter" stroke-opacity="1.0" fill-opacity="0.0" stroke="rgb(0,0,0)" stroke-width="0.9999999999999997" fill="rgb(0,0,0)" stroke-linecap="butt" stroke-miterlimit="10.0"><path d="M 34.3697,163.7500 h 5.0000 "/></g><g stroke-linejoin="miter" stroke-opacity="1.0" fill-opacity="0.0" stroke="rgb(0,0,0)" stroke-width="0.9999999999999997" fill="rgb(0,0,0)" stroke-linecap="butt" stroke-miterlimit="10.0"><path d="M 34.3697,35.0000 h 5.0000 "/></g><g stroke-linejoin="bevel" stroke-opacity="0.0" fill-opacity="1.0" stroke="rgb(0,0,0)" stroke-width="0.0" fill="rgb(0,0,0)" stroke-linecap="butt" stroke-miterlimit="10.0"><path d="M 14.7689,553.4454 ZM 15.1891,552.9307 c 0.7563,-0.7563 1.3445,-1.3655 1.3445 -1.3655c 0.5882,-0.6092 0.9874,-1.1292 0.9874 -1.1292c 0.3992,-0.5200 0.6092,-0.9559 0.6092 -0.9559c 0.2101,-0.4359 0.2101,-0.8456 0.2101 -0.8456c 0.0000,-0.5777 -0.3151,-0.9454 -0.3151 -0.9454c -0.3151,-0.3676 -0.9559,-0.3676 -0.9559 -0.3676c -0.4202,-0.0000 -0.7773,0.2363 -0.7773 0.2363c -0.3571,0.2363 -0.6513,0.5725 -0.6513 0.5725l -0.4937,-0.4937 c 0.4202,-0.4622 0.8929,-0.7405 0.8929 -0.7405c 0.4727,-0.2784 1.1345,-0.2784 1.1345 -0.2784c 0.9349,0.0000 1.4706,0.5410 1.4706 0.5410c 0.5357,0.5410 0.5357,1.4338 0.5357 1.4338c 0.0000,0.4727 -0.2048,0.9506 -0.2048 0.9506c -0.2048,0.4779 -0.5672,0.9874 -0.5672 0.9874c -0.3624,0.5095 -0.8613,1.0609 -0.8613 1.0609c -0.4989,0.5515 -1.0977,1.1712 -1.0977 1.1712c 0.2731,-0.0210 0.5672,-0.0420 0.5672 -0.0420c 0.2941,-0.0210 0.5567,-0.0210 0.5567 -0.0210h 1.9433 v 0.7458 h -4.3277 v -0.5147 ZM 19.9895,553.4454 ZM 22.6050,553.5714 c -1.0189,-0.0000 -1.5861,-0.9034 -1.5861 -0.9034c -0.5672,-0.9034 -0.5672,-2.5945 -0.5672 -2.5945c 0.0000,-1.6912 0.5672,-2.5735 0.5672 -2.5735c 0.5672,-0.8824 1.5861,-0.8824 1.5861 -0.8824c 1.0084,0.0000 1.5756,0.8824 1.5756 0.8824c 0.5672,0.8824 0.5672,2.5735 0.5672 2.5735c 0.0000,1.6912 -0.5672,2.5945 -0.5672 2.5945c -0.5672,0.9034 -1.5756,0.9034 -1.5756 0.9034ZM 22.6050,553.5714 ZM 22.6050,552.8782 c 0.2941,0.0000 0.5305,-0.1628 0.5305 -0.1628c 0.2363,-0.1628 0.4097,-0.5042 0.4097 -0.5042c 0.1733,-0.3414 0.2679,-0.8718 0.2679 -0.8718c 0.0945,-0.5305 0.0945,-1.2658 0.0945 -1.2658c 0.0000,-0.7353 -0.0945,-1.2605 -0.0945 -1.2605c -0.0945,-0.5252 -0.2679,-0.8561 -0.2679 -0.8561c -0.1733,-0.3309 -0.4097,-0.4884 -0.4097 -0.4884c -0.2363,-0.1576 -0.5305,-0.1576 -0.5305 -0.1576c -0.2941,-0.0000 -0.5357,0.1576 -0.5357 0.1576c -0.2416,0.1576 -0.4149,0.4884 -0.4149 0.4884c -0.1733,0.3309 -0.2679,0.8561 -0.2679 0.8561c -0.0945,0.5252 -0.0945,1.2605 -0.0945 1.2605c 0.0000,1.4706 0.3624,2.1376 0.3624 2.1376c 0.3624,0.6670 0.9506,0.6670 0.9506 0.6670Z"/></g><g stroke-linejoin="bevel" stroke-opacity="0.0" fill-opacity="1.0" stroke="rgb(0,0,0)" stroke-width="0.0" fill="rgb(0,0,0)" stroke-linecap="butt" stroke-miterlimit="10.0"><path d="M 14.5693,424.6954 ZM 17.7626,422.1534 v -1.9433 c 0.0000,-0.2731 0.0158,-0.6460 0.0158 -0.6460c 0.0158,-0.3729 0.0368,-0.6460 0.0368 -0.6460h -0.0420 c -0.1261,0.2416 -0.2626,0.4727 -0.2626 0.4727c -0.1366,0.2311 -0.2836,0.4727 -0.2836 0.4727l -1.5651,2.2899 h 2.1008 ZM 17.7626,422.1534 ZM 19.4958,422.8466 h -0.9139 v 1.8487 h -0.8193 v -1.8487 h -3.0147 v -0.5672 l 2.8676,-4.2857 h 0.9664 v 4.1597 h 0.9139 v 0.6933 ZM 19.7899,424.6954 ZM 22.4055,424.8214 c -1.0189,-0.0000 -1.5861,-0.9034 -1.5861 -0.9034c -0.5672,-0.9034 -0.5672,-2.5945 -0.5672 -2.5945c 0.0000,-1.6912 0.5672,-2.5735 0.5672 -2.5735c 0.5672,-0.8824 1.5861,-0.8824 1.5861 -0.8824c 1.0084,0.0000 1.5756,0.8824 1.5756 0.8824c 0.5672,0.8824 0.5672,2.5735 0.5672 2.5735c 0.0000,1.6912 -0.5672,2.5945 -0.5672 2.5945c -0.5672,0.9034 -1.5756,0.9034 -1.5756 0.9034ZM 22.4055,424.8214 ZM 22.4055,424.1282 c 0.2941,0.0000 0.5305,-0.1628 0.5305 -0.1628c 0.2363,-0.1628 0.4097,-0.5042 0.4097 -0.5042c 0.1733,-0.3414 0.2679,-0.8718 0.2679 -0.8718c 0.0945,-0.5305 0.0945,-1.2658 0.0945 -1.2658c 0.0000,-0.7353 -0.0945,-1.2605 -0.0945 -1.2605c -0.0945,-0.5252 -0.2679,-0.8561 -0.2679 -0.8561c -0.1733,-0.3309 -0.4097,-0.4884 -0.4097 -0.4884c -0.2363,-0.1576 -0.5305,-0.1576 -0.5305 -0.1576c -0.2941,-0.0000 -0.5357,0.1576 -0.5357 0.1576c -0.2416,0.1576 -0.4149,0.4884 -0.4149 0.4884c -0.1733,0.3309 -0.2679,0.8561 -0.2679 0.8561c -0.0945,0.5252 -0.0945,1.2605 -0.0945 1.2605c 0.0000,1.4706 0.3624,2.1376 0.3624 2.1376c 0.3624,0.6670 0.9506,0.6670 0.9506 0.6670Z"/></g><g stroke-linejoin="bevel" stroke-opacity="0.0" fill-opacity="1.0" stroke="rgb(0,0,0)" stroke-width="0.0" fill="rgb(0,0,0)" stroke-linecap="butt" stroke-miterlimit="10.0"><path d="M 14.8950,295.9454 ZM 17.7101,295.3887 c 0.2521,0.0000 0.4622,-0.1050 0.4622 -0.1050c 0.2101,-0.1050 0.3676,-0.2994 0.3676 -0.2994c 0.1576,-0.1943 0.2468,-0.4622 0.2468 -0.4622c 0.0893,-0.2679 0.0893,-0.6040 0.0893 -0.6040c 0.0000,-0.6618 -0.3046,-1.0399 -0.3046 -1.0399c -0.3046,-0.3782 -0.9349,-0.3782 -0.9349 -0.3782c -0.3151,-0.0000 -0.6880,0.2048 -0.6880 0.2048c -0.3729,0.2048 -0.7090,0.6775 -0.7090 0.6775c 0.0840,0.9874 0.4569,1.4968 0.4569 1.4968c 0.3729,0.5095 1.0137,0.5095 1.0137 0.5095ZM 17.7101,295.3887 ZM 19.0861,290.3676 c -0.2101,-0.2416 -0.4989,-0.3834 -0.4989 -0.3834c -0.2889,-0.1418 -0.6040,-0.1418 -0.6040 -0.1418c -0.3466,-0.0000 -0.6618,0.1471 -0.6618 0.1471c -0.3151,0.1471 -0.5567,0.4832 -0.5567 0.4832c -0.2416,0.3361 -0.3887,0.8771 -0.3887 0.8771c -0.1471,0.5410 -0.1576,1.3393 -0.1576 1.3393c 0.3151,-0.3887 0.7353,-0.6145 0.7353 -0.6145c 0.4202,-0.2258 0.8298,-0.2258 0.8298 -0.2258c 0.8718,0.0000 1.3918,0.5147 1.3918 0.5147c 0.5200,0.5147 0.5200,1.5546 0.5200 1.5546c 0.0000,0.4832 -0.1576,0.8771 -0.1576 0.8771c -0.1576,0.3939 -0.4307,0.6775 -0.4307 0.6775c -0.2731,0.2836 -0.6303,0.4412 -0.6303 0.4412c -0.3571,0.1576 -0.7668,0.1576 -0.7668 0.1576c -0.4937,-0.0000 -0.9139,-0.1996 -0.9139 -0.1996c -0.4202,-0.1996 -0.7300,-0.6040 -0.7300 -0.6040c -0.3099,-0.4044 -0.4884,-1.0084 -0.4884 -1.0084c -0.1786,-0.6040 -0.1786,-1.4128 -0.1786 -1.4128c 0.0000,-1.0084 0.2101,-1.7174 0.2101 -1.7174c 0.2101,-0.7090 0.5672,-1.1555 0.5672 -1.1555c 0.3571,-0.4464 0.8141,-0.6513 0.8141 -0.6513c 0.4569,-0.2048 0.9611,-0.2048 0.9611 -0.2048c 0.5462,0.0000 0.9401,0.2048 0.9401 0.2048c 0.3939,0.2048 0.6775,0.5095 0.6775 0.5095ZM 20.1155,295.9454 ZM 22.7311,296.0714 c -1.0189,-0.0000 -1.5861,-0.9034 -1.5861 -0.9034c -0.5672,-0.9034 -0.5672,-2.5945 -0.5672 -2.5945c 0.0000,-1.6912 0.5672,-2.5735 0.5672 -2.5735c 0.5672,-0.8824 1.5861,-0.8824 1.5861 -0.8824c 1.0084,0.0000 1.5756,0.8824 1.5756 0.8824c 0.5672,0.8824 0.5672,2.5735 0.5672 2.5735c 0.0000,1.6912 -0.5672,2.5945 -0.5672 2.5945c -0.5672,0.9034 -1.5756,0.9034 -1.5756 0.9034ZM 22.7311,296.0714 ZM 22.7311,295.3782 c 0.2941,0.0000 0.5305,-0.1628 0.5305 -0.1628c 0.2363,-0.1628 0.4097,-0.5042 0.4097 -0.5042c 0.1733,-0.3414 0.2679,-0.8718 0.2679 -0.8718c 0.0945,-0.5305 0.0945,-1.2658 0.0945 -1.2658c 0.0000,-0.7353 -0.0945,-1.2605 -0.0945 -1.2605c -0.0945,-0.5252 -0.2679,-0.8561 -0.2679 -0.8561c -0.1733,-0.3309 -0.4097,-0.4884 -0.4097 -0.4884c -0.2363,-0.1576 -0.5305,-0.1576 -0.5305 -0.1576c -0.2941,-0.0000 -0.5357,0.1576 -0.5357 0.1576c -0.2416,0.1576 -0.4149,0.4884 -0.4149 0.4884c -0.1733,0.3309 -0.2679,0.8561 -0.2679 0.8561c -0.0945,0.5252 -0.0945,1.2605 -0.0945 1.2605c 0.0000,1.4706 0.3624,2.1376 0.3624 2.1376c 0.3624,0.6670 0.9506,0.6670 0.9506 0.6670Z"/></g><g stroke-linejoin="bevel" stroke-opacity="0.0" fill-opacity="1.0" stroke="rgb(0,0,0)" stroke-width="0.0" fill="rgb(0,0,0)" stroke-linecap="butt" stroke-miterlimit="10.0"><path d="M 14.8214,167.1954 ZM 16.0294,165.3992 c 0.0000,0.2836 0.1103,0.5147 0.1103 0.5147c 0.1103,0.2311 0.3046,0.4044 0.3046 0.4044c 0.1943,0.1733 0.4569,0.2679 0.4569 0.2679c 0.2626,0.0945 0.5672,0.0945 0.5672 0.0945c 0.5882,0.0000 0.9506,-0.3256 0.9506 -0.3256c 0.3624,-0.3256 0.3624,-0.8508 0.3624 -0.8508c 0.0000,-0.3256 -0.1471,-0.5567 -0.1471 -0.5567c -0.1471,-0.2311 -0.3992,-0.4044 -0.3992 -0.4044c -0.2521,-0.1733 -0.5830,-0.3151 -0.5830 -0.3151c -0.3309,-0.1418 -0.6880,-0.2889 -0.6880 -0.2889c -0.3992,0.2731 -0.6670,0.6355 -0.6670 0.6355c -0.2679,0.3624 -0.2679,0.8246 -0.2679 0.8246ZM 16.0294,165.3992 ZM 17.9202,163.5399 c 0.3361,-0.3046 0.5200,-0.6408 0.5200 -0.6408c 0.1838,-0.3361 0.1838,-0.7038 0.1838 -0.7038c 0.0000,-0.5042 -0.3046,-0.8456 -0.3046 -0.8456c -0.3046,-0.3414 -0.8613,-0.3414 -0.8613 -0.3414c -0.4727,-0.0000 -0.7773,0.2941 -0.7773 0.2941c -0.3046,0.2941 -0.3046,0.7878 -0.3046 0.7878c 0.0000,0.3046 0.1261,0.5200 0.1261 0.5200c 0.1261,0.2153 0.3414,0.3834 0.3414 0.3834c 0.2153,0.1681 0.4937,0.2994 0.4937 0.2994c 0.2784,0.1313 0.5830,0.2468 0.5830 0.2468ZM 17.9202,163.5399 ZM 15.2521,165.4832 c 0.0000,-0.3256 0.1103,-0.6040 0.1103 -0.6040c 0.1103,-0.2784 0.2836,-0.5042 0.2836 -0.5042c 0.1733,-0.2258 0.3992,-0.3992 0.3992 -0.3992c 0.2258,-0.1733 0.4674,-0.2994 0.4674 -0.2994v -0.0420 c -0.3676,-0.2626 -0.6513,-0.6355 -0.6513 -0.6355c -0.2836,-0.3729 -0.2836,-0.9086 -0.2836 -0.9086c 0.0000,-0.3887 0.1471,-0.7038 0.1471 -0.7038c 0.1471,-0.3151 0.3992,-0.5410 0.3992 -0.5410c 0.2521,-0.2258 0.5987,-0.3519 0.5987 -0.3519c 0.3466,-0.1261 0.7563,-0.1261 0.7563 -0.1261c 0.4412,0.0000 0.7878,0.1313 0.7878 0.1313c 0.3466,0.1313 0.5935,0.3676 0.5935 0.3676c 0.2468,0.2363 0.3782,0.5672 0.3782 0.5672c 0.1313,0.3309 0.1313,0.7195 0.1313 0.7195c 0.0000,0.2626 -0.0893,0.5042 -0.0893 0.5042c -0.0893,0.2416 -0.2206,0.4517 -0.2206 0.4517c -0.1313,0.2101 -0.2941,0.3782 -0.2941 0.3782c -0.1628,0.1681 -0.3204,0.2836 -0.3204 0.2836v 0.0420 c 0.2206,0.1261 0.4307,0.2889 0.4307 0.2889c 0.2101,0.1628 0.3729,0.3676 0.3729 0.3676c 0.1628,0.2048 0.2626,0.4674 0.2626 0.4674c 0.0998,0.2626 0.0998,0.5987 0.0998 0.5987c 0.0000,0.3782 -0.1576,0.7038 -0.1576 0.7038c -0.1576,0.3256 -0.4412,0.5672 -0.4412 0.5672c -0.2836,0.2416 -0.6828,0.3782 -0.6828 0.3782c -0.3992,0.1366 -0.8824,0.1366 -0.8824 0.1366c -0.4727,-0.0000 -0.8771,-0.1366 -0.8771 -0.1366c -0.4044,-0.1366 -0.6933,-0.3834 -0.6933 -0.3834c -0.2889,-0.2468 -0.4569,-0.5830 -0.4569 -0.5830c -0.1681,-0.3361 -0.1681,-0.7353 -0.1681 -0.7353ZM 20.0420,167.1954 ZM 22.6576,167.3214 c -1.0189,-0.0000 -1.5861,-0.9034 -1.5861 -0.9034c -0.5672,-0.9034 -0.5672,-2.5945 -0.5672 -2.5945c 0.0000,-1.6912 0.5672,-2.5735 0.5672 -2.5735c 0.5672,-0.8824 1.5861,-0.8824 1.5861 -0.8824c 1.0084,0.0000 1.5756,0.8824 1.5756 0.8824c 0.5672,0.8824 0.5672,2.5735 0.5672 2.5735c 0.0000,1.6912 -0.5672,2.5945 -0.5672 2.5945c -0.5672,0.9034 -1.5756,0.9034 -1.5756 0.9034ZM 22.6576,167.3214 ZM 22.6576,166.6282 c 0.2941,0.0000 0.5305,-0.1628 0.5305 -0.1628c 0.2363,-0.1628 0.4097,-0.5042 0.4097 -0.5042c 0.1733,-0.3414 0.2679,-0.8718 0.2679 -0.8718c 0.0945,-0.5305 0.0945,-1.2658 0.0945 -1.2658c 0.0000,-0.7353 -0.0945,-1.2605 -0.0945 -1.2605c -0.0945,-0.5252 -0.2679,-0.8561 -0.2679 -0.8561c -0.1733,-0.3309 -0.4097,-0.4884 -0.4097 -0.4884c -0.2363,-0.1576 -0.5305,-0.1576 -0.5305 -0.1576c -0.2941,-0.0000 -0.5357,0.1576 -0.5357 0.1576c -0.2416,0.1576 -0.4149,0.4884 -0.4149 0.4884c -0.1733,0.3309 -0.2679,0.8561 -0.2679 0.8561c -0.0945,0.5252 -0.0945,1.2605 -0.0945 1.2605c 0.0000,1.4706 0.3624,2.1376 0.3624 2.1376c 0.3624,0.6670 0.9506,0.6670 0.9506 0.6670Z"/></g><g stroke-linejoin="bevel" stroke-opacity="0.0" fill-opacity="1.0" stroke="rgb(0,0,0)" stroke-width="0.0" fill="rgb(0,0,0)" stroke-linecap="butt" stroke-miterlimit="10.0"><path d="M 10.0000,38.4454 ZM 10.8298,37.7311 h 1.5336 v -4.9370 h -1.2185 v -0.5567 c 0.4622,-0.0840 0.8036,-0.2048 0.8036 -0.2048c 0.3414,-0.1208 0.6145,-0.2889 0.6145 -0.2889h 0.6618 v 5.9874 h 1.3866 v 0.7143 h -3.7815 v -0.7143 ZM 15.2206,38.4454 ZM 17.8361,38.5714 c -1.0189,-0.0000 -1.5861,-0.9034 -1.5861 -0.9034c -0.5672,-0.9034 -0.5672,-2.5945 -0.5672 -2.5945c 0.0000,-1.6912 0.5672,-2.5735 0.5672 -2.5735c 0.5672,-0.8824 1.5861,-0.8824 1.5861 -0.8824c 1.0084,0.0000 1.5756,0.8824 1.5756 0.8824c 0.5672,0.8824 0.5672,2.5735 0.5672 2.5735c 0.0000,1.6912 -0.5672,2.5945 -0.5672 2.5945c -0.5672,0.9034 -1.5756,0.9034 -1.5756 0.9034ZM 17.8361,38.5714 ZM 17.8361,37.8782 c 0.2941,0.0000 0.5305,-0.1628 0.5305 -0.1628c 0.2363,-0.1628 0.4097,-0.5042 0.4097 -0.5042c 0.1733,-0.3414 0.2679,-0.8718 0.2679 -0.8718c 0.0945,-0.5305 0.0945,-1.2658 0.0945 -1.2658c 0.0000,-0.7353 -0.0945,-1.2605 -0.0945 -1.2605c -0.0945,-0.5252 -0.2679,-0.8561 -0.2679 -0.8561c -0.1733,-0.3309 -0.4097,-0.4884 -0.4097 -0.4884c -0.2363,-0.1576 -0.5305,-0.1576 -0.5305 -0.1576c -0.2941,-0.0000 -0.5357,0.1576 -0.5357 0.1576c -0.2416,0.1576 -0.4149,0.4884 -0.4149 0.4884c -0.1733,0.3309 -0.2679,0.8561 -0.2679 0.8561c -0.0945,0.5252 -0.0945,1.2605 -0.0945 1.2605c 0.0000,1.4706 0.3624,2.1376 0.3624 2.1376c 0.3624,0.6670 0.9506,0.6670 0.9506 0.6670ZM 20.4412,38.4454 ZM 23.0567,38.5714 c -1.0189,-0.0000 -1.5861,-0.9034 -1.5861 -0.9034c -0.5672,-0.9034 -0.5672,-2.5945 -0.5672 -2.5945c 0.0000,-1.6912 0.5672,-2.5735 0.5672 -2.5735c 0.5672,-0.8824 1.5861,-0.8824 1.5861 -0.8824c 1.0084,0.0000 1.5756,0.8824 1.5756 0.8824c 0.5672,0.8824 0.5672,2.5735 0.5672 2.5735c 0.0000,1.6912 -0.5672,2.5945 -0.5672 2.5945c -0.5672,0.9034 -1.5756,0.9034 -1.5756 0.9034ZM 23.0567,38.5714 ZM 23.0567,37.8782 c 0.2941,0.0000 0.5305,-0.1628 0.5305 -0.1628c 0.2363,-0.1628 0.4097,-0.5042 0.4097 -0.5042c 0.1733,-0.3414 0.2679,-0.8718 0.2679 -0.8718c 0.0945,-0.5305 0.0945,-1.2658 0.0945 -1.2658c 0.0000,-0.7353 -0.0945,-1.2605 -0.0945 -1.2605c -0.0945,-0.5252 -0.2679,-0.8561 -0.2679 -0.8561c -0.1733,-0.3309 -0.4097,-0.4884 -0.4097 -0.4884c -0.2363,-0.1576 -0.5305,-0.1576 -0.5305 -0.1576c -0.2941,-0.0000 -0.5357,0.1576 -0.5357 0.1576c -0.2416,0.1576 -0.4149,0.4884 -0.4149 0.4884c -0.1733,0.3309 -0.2679,0.8561 -0.2679 0.8561c -0.0945,0.5252 -0.0945,1.2605 -0.0945 1.2605c 0.0000,1.4706 0.3624,2.1376 0.3624 2.1376c 0.3624,0.6670 0.9506,0.6670 0.9506 0.6670Z"/></g><g stroke-linejoin="miter" stroke-opacity="1.0" fill-opacity="0.0" stroke="rgb(0,0,0)" stroke-width="0.9999999999999997" fill="rgb(0,0,0)" stroke-linecap="square" stroke-miterlimit="10.0"><path d="M 34.3697,550.0000 h 750.7511 "/></g><g stroke-linejoin="miter" stroke-opacity="1.0" fill-opacity="0.0" stroke="rgb(0,0,0)" stroke-width="0.9999999999999997" fill="rgb(0,0,0)" stroke-linecap="butt" stroke-miterlimit="10.0"><path d="M 34.3697,550.0000 v -2.0000 "/></g><g stroke-linejoin="miter" stroke-opacity="1.0" fill-opacity="0.0" stroke="rgb(0,0,0)" stroke-width="0.9999999999999997" fill="rgb(0,0,0)" stroke-linecap="butt" stroke-miterlimit="10.0"><path d="M 46.8823,550.0000 v -2.0000 "/></g><g stroke-linejoin="miter" stroke-opacity="1.0" fill-opacity="0.0" stroke="rgb(0,0,0)" stroke-width="0.9999999999999997" fill="rgb(0,0,0)" stroke-linecap="butt" stroke-miterlimit="10.0"><path d="M 59.3948,550.0000 v -2.0000 "/></g><g stroke-linejoin="miter" stroke-opacity="1.0" fill-opacity="0.0" stroke="rgb(0,0,0)" stroke-width="0.9999999999999997" fill="rgb(0,0,0)" stroke-linecap="butt" stroke-miterlimit="10.0"><path d="M 71.9073,550.0000 v -2.0000 "/></g><g stroke-linejoin="miter" stroke-opacity="1.0" fill-opacity="0.0" stroke="rgb(0,0,0)" stroke-width="0.9999999999999997" fill="rgb(0,0,0)" stroke-linecap="butt" stroke-miterlimit="10.0"><path d="M 84.4198,550.0000 v -2.0000 "/></g><g stroke-linejoin="miter" stroke-opacity="1.0" fill-opacity="0.0" stroke="rgb(0,0,0)" stroke-width="0.9999999999999997" fill="rgb(0,0,0)" stroke-linecap="butt" stroke-miterlimit="10.0"><path d="M 96.9323,550.0000 v -2.0000 "/></g><g stroke-linejoin="miter" stroke-opacity="1.0" fill-opacity="0.0" stroke="rgb(0,0,0)" stroke-width="0.9999999999999997" fill="rgb(0,0,0)" stroke-linecap="butt" stroke-miterlimit="10.0"><path d="M 109.4449,550.0000 v -2.0000 "/></g><g stroke-linejoin="miter" stroke-opacity="1.0" fill-opacity="0.0" stroke="rgb(0,0,0)" stroke-width="0.9999999999999997" fill="rgb(0,0,0)" stroke-linecap="butt" stroke-miterlimit="10.0"><path d="M 121.9574,550.0000 v -2.0000 "/></g><g stroke-linejoin="miter" stroke-opacity="1.0" fill-opacity="0.0" stroke="rgb(0,0,0)" stroke-width="0.9999999999999997" fill="rgb(0,0,0)" stroke-linecap="butt" stroke-miterlimit="10.0"><path d="M 134.4699,550.0000 v -2.0000 "/></g><g stroke-linejoin="miter" stroke-opacity="1.0" fill-opacity="0.0" stroke="rgb(0,0,0)" stroke-width="0.9999999999999997" fill="rgb(0,0,0)" stroke-linecap="butt" stroke-miterlimit="10.0"><path d="M 146.9824,550.0000 v -2.0000 "/></g><g stroke-linejoin="miter" stroke-opacity="1.0" fill-opacity="0.0" stroke="rgb(0,0,0)" stroke-width="0.9999999999999997" fill="rgb(0,0,0)" stroke-linecap="butt" stroke-miterlimit="10.0"><path d="M 159.4949,550.0000 v -2.0000 "/></g><g stroke-linejoin="miter" stroke-opacity="1.0" fill-opacity="0.0" stroke="rgb(0,0,0)" stroke-width="0.9999999999999997" fill="rgb(0,0,0)" stroke-linecap="butt" stroke-miterlimit="10.0"><path d="M 172.0074,550.0000 v -2.0000 "/></g><g stroke-linejoin="miter" stroke-opacity="1.0" fill-opacity="0.0" stroke="rgb(0,0,0)" stroke-width="0.9999999999999997" fill="rgb(0,0,0)" stroke-linecap="butt" stroke-miterlimit="10.0"><path d="M 184.5200,550.0000 v -2.0000 "/></g><g stroke-linejoin="miter" stroke-opacity="1.0" fill-opacity="0.0" stroke="rgb(0,0,0)" stroke-width="0.9999999999999997" fill="rgb(0,0,0)" stroke-linecap="butt" stroke-miterlimit="10.0"><path d="M 197.0325,550.0000 v -2.0000 "/></g><g stroke-linejoin="miter" stroke-opacity="1.0" fill-opacity="0.0" stroke="rgb(0,0,0)" stroke-width="0.9999999999999997" fill="rgb(0,0,0)" stroke-linecap="butt" stroke-miterlimit="10.0"><path d="M 209.5450,550.0000 v -2.0000 "/></g><g stroke-linejoin="miter" stroke-opacity="1.0" fill-opacity="0.0" stroke="rgb(0,0,0)" stroke-width="0.9999999999999997" fill="rgb(0,0,0)" stroke-linecap="butt" stroke-miterlimit="10.0"><path d="M 222.0575,550.0000 v -2.0000 "/></g><g stroke-linejoin="miter" stroke-opacity="1.0" fill-opacity="0.0" stroke="rgb(0,0,0)" stroke-width="0.9999999999999997" fill="rgb(0,0,0)" stroke-linecap="butt" stroke-miterlimit="10.0"><path d="M 234.5700,550.0000 v -2.0000 "/></g><g stroke-linejoin="miter" stroke-opacity="1.0" fill-opacity="0.0" stroke="rgb(0,0,0)" stroke-width="0.9999999999999997" fill="rgb(0,0,0)" stroke-linecap="butt" stroke-miterlimit="10.0"><path d="M 247.0825,550.0000 v -2.0000 "/></g><g stroke-linejoin="miter" stroke-opacity="1.0" fill-opacity="0.0" stroke="rgb(0,0,0)" stroke-width="0.9999999999999997" fill="rgb(0,0,0)" stroke-linecap="butt" stroke-miterlimit="10.0"><path d="M 259.5951,550.0000 v -2.0000 "/></g><g stroke-linejoin="miter" stroke-opacity="1.0" fill-opacity="0.0" stroke="rgb(0,0,0)" stroke-width="0.9999999999999997" fill="rgb(0,0,0)" stroke-linecap="butt" stroke-miterlimit="10.0"><path d="M 272.1076,550.0000 v -2.0000 "/></g><g stroke-linejoin="miter" stroke-opacity="1.0" fill-opacity="0.0" stroke="rgb(0,0,0)" stroke-width="0.9999999999999997" fill="rgb(0,0,0)" stroke-linecap="butt" stroke-miterlimit="10.0"><path d="M 284.6201,550.0000 v -2.0000 "/></g><g stroke-linejoin="miter" stroke-opacity="1.0" fill-opacity="0.0" stroke="rgb(0,0,0)" stroke-width="0.9999999999999997" fill="rgb(0,0,0)" stroke-linecap="butt" stroke-miterlimit="10.0"><path d="M 297.1326,550.0000 v -2.0000 "/></g><g stroke-linejoin="miter" stroke-opacity="1.0" fill-opacity="0.0" stroke="rgb(0,0,0)" stroke-width="0.9999999999999997" fill="rgb(0,0,0)" stroke-linecap="butt" stroke-miterlimit="10.0"><path d="M 309.6451,550.0000 v -2.0000 "/></g><g stroke-linejoin="miter" stroke-opacity="1.0" fill-opacity="0.0" stroke="rgb(0,0,0)" stroke-width="0.9999999999999997" fill="rgb(0,0,0)" stroke-linecap="butt" stroke-miterlimit="10.0"><path d="M 322.1577,550.0000 v -2.0000 "/></g><g stroke-linejoin="miter" stroke-opacity="1.0" fill-opacity="0.0" stroke="rgb(0,0,0)" stroke-width="0.9999999999999997" fill="rgb(0,0,0)" stroke-linecap="butt" stroke-miterlimit="10.0"><path d="M 334.6702,550.0000 v -2.0000 "/></g><g stroke-linejoin="miter" stroke-opacity="1.0" fill-opacity="0.0" stroke="rgb(0,0,0)" stroke-width="0.9999999999999997" fill="rgb(0,0,0)" stroke-linecap="butt" stroke-miterlimit="10.0"><path d="M 347.1827,550.0000 v -2.0000 "/></g><g stroke-linejoin="miter" stroke-opacity="1.0" fill-opacity="0.0" stroke="rgb(0,0,0)" stroke-width="0.9999999999999997" fill="rgb(0,0,0)" stroke-linecap="butt" stroke-miterlimit="10.0"><path d="M 359.6952,550.0000 v -2.0000 "/></g><g stroke-linejoin="miter" stroke-opacity="1.0" fill-opacity="0.0" stroke="rgb(0,0,0)" stroke-width="0.9999999999999997" fill="rgb(0,0,0)" stroke-linecap="butt" stroke-miterlimit="10.0"><path d="M 372.2077,550.0000 v -2.0000 "/></g><g stroke-linejoin="miter" stroke-opacity="1.0" fill-opacity="0.0" stroke="rgb(0,0,0)" stroke-width="0.9999999999999997" fill="rgb(0,0,0)" stroke-linecap="butt" stroke-miterlimit="10.0"><path d="M 384.7202,550.0000 v -2.0000 "/></g><g stroke-linejoin="miter" stroke-opacity="1.0" fill-opacity="0.0" stroke="rgb(0,0,0)" stroke-width="0.9999999999999997" fill="rgb(0,0,0)" stroke-linecap="butt" stroke-miterlimit="10.0"><path d="M 397.2328,550.0000 v -2.0000 "/></g><g stroke-linejoin="miter" stroke-opacity="1.0" fill-opacity="0.0" stroke="rgb(0,0,0)" stroke-width="0.9999999999999997" fill="rgb(0,0,0)" stroke-linecap="butt" stroke-miterlimit="10.0"><path d="M 409.7453,550.0000 v -2.0000 "/></g><g stroke-linejoin="miter" stroke-opacity="1.0" fill-opacity="0.0" stroke="rgb(0,0,0)" stroke-width="0.9999999999999997" fill="rgb(0,0,0)" stroke-linecap="butt" stroke-miterlimit="10.0"><path d="M 422.2578,550.0000 v -2.0000 "/></g><g stroke-linejoin="miter" stroke-opacity="1.0" fill-opacity="0.0" stroke="rgb(0,0,0)" stroke-width="0.9999999999999997" fill="rgb(0,0,0)" stroke-linecap="butt" stroke-miterlimit="10.0"><path d="M 434.7703,550.0000 v -2.0000 "/></g><g stroke-linejoin="miter" stroke-opacity="1.0" fill-opacity="0.0" stroke="rgb(0,0,0)" stroke-width="0.9999999999999997" fill="rgb(0,0,0)" stroke-linecap="butt" stroke-miterlimit="10.0"><path d="M 447.2828,550.0000 v -2.0000 "/></g><g stroke-linejoin="miter" stroke-opacity="1.0" fill-opacity="0.0" stroke="rgb(0,0,0)" stroke-width="0.9999999999999997" fill="rgb(0,0,0)" stroke-linecap="butt" stroke-miterlimit="10.0"><path d="M 459.7953,550.0000 v -2.0000 "/></g><g stroke-linejoin="miter" stroke-opacity="1.0" fill-opacity="0.0" stroke="rgb(0,0,0)" stroke-width="0.9999999999999997" fill="rgb(0,0,0)" stroke-linecap="butt" stroke-miterlimit="10.0"><path d="M 472.3079,550.0000 v -2.0000 "/></g><g stroke-linejoin="miter" stroke-opacity="1.0" fill-opacity="0.0" stroke="rgb(0,0,0)" stroke-width="0.9999999999999997" fill="rgb(0,0,0)" stroke-linecap="butt" stroke-miterlimit="10.0"><path d="M 484.8204,550.0000 v -2.0000 "/></g><g stroke-linejoin="miter" stroke-opacity="1.0" fill-opacity="0.0" stroke="rgb(0,0,0)" stroke-width="0.9999999999999997" fill="rgb(0,0,0)" stroke-linecap="butt" stroke-miterlimit="10.0"><path d="M 497.3329,550.0000 v -2.0000 "/></g><g stroke-linejoin="miter" stroke-opacity="1.0" fill-opacity="0.0" stroke="rgb(0,0,0)" stroke-width="0.9999999999999997" fill="rgb(0,0,0)" stroke-linecap="butt" stroke-miterlimit="10.0"><path d="M 509.8454,550.0000 v -2.0000 "/></g><g stroke-linejoin="miter" stroke-opacity="1.0" fill-opacity="0.0" stroke="rgb(0,0,0)" stroke-width="0.9999999999999997" fill="rgb(0,0,0)" stroke-linecap="butt" stroke-miterlimit="10.0"><path d="M 522.3579,550.0000 v -2.0000 "/></g><g stroke-linejoin="miter" stroke-opacity="1.0" fill-opacity="0.0" stroke="rgb(0,0,0)" stroke-width="0.9999999999999997" fill="rgb(0,0,0)" stroke-linecap="butt" stroke-miterlimit="10.0"><path d="M 534.8704,550.0000 v -2.0000 "/></g><g stroke-linejoin="miter" stroke-opacity="1.0" fill-opacity="0.0" stroke="rgb(0,0,0)" stroke-width="0.9999999999999997" fill="rgb(0,0,0)" stroke-linecap="butt" stroke-miterlimit="10.0"><path d="M 547.3830,550.0000 v -2.0000 "/></g><g stroke-linejoin="miter" stroke-opacity="1.0" fill-opacity="0.0" stroke="rgb(0,0,0)" stroke-width="0.9999999999999997" fill="rgb(0,0,0)" stroke-linecap="butt" stroke-miterlimit="10.0"><path d="M 559.8955,550.0000 v -2.0000 "/></g><g stroke-linejoin="miter" stroke-opacity="1.0" fill-opacity="0.0" stroke="rgb(0,0,0)" stroke-width="0.9999999999999997" fill="rgb(0,0,0)" stroke-linecap="butt" stroke-miterlimit="10.0"><path d="M 572.4080,550.0000 v -2.0000 "/></g><g stroke-linejoin="miter" stroke-opacity="1.0" fill-opacity="0.0" stroke="rgb(0,0,0)" stroke-width="0.9999999999999997" fill="rgb(0,0,0)" stroke-linecap="butt" stroke-miterlimit="10.0"><path d="M 584.9205,550.0000 v -2.0000 "/></g><g stroke-linejoin="miter" stroke-opacity="1.0" fill-opacity="0.0" stroke="rgb(0,0,0)" stroke-width="0.9999999999999997" fill="rgb(0,0,0)" stroke-linecap="butt" stroke-miterlimit="10.0"><path d="M 597.4330,550.0000 v -2.0000 "/></g><g stroke-linejoin="miter" stroke-opacity="1.0" fill-opacity="0.0" stroke="rgb(0,0,0)" stroke-width="0.9999999999999997" fill="rgb(0,0,0)" stroke-linecap="butt" stroke-miterlimit="10.0"><path d="M 609.9456,550.0000 v -2.0000 "/></g><g stroke-linejoin="miter" stroke-opacity="1.0" fill-opacity="0.0" stroke="rgb(0,0,0)" stroke-width="0.9999999999999997" fill="rgb(0,0,0)" stroke-linecap="butt" stroke-miterlimit="10.0"><path d="M 622.4581,550.0000 v -2.0000 "/></g><g stroke-linejoin="miter" stroke-opacity="1.0" fill-opacity="0.0" stroke="rgb(0,0,0)" stroke-width="0.9999999999999997" fill="rgb(0,0,0)" stroke-linecap="butt" stroke-miterlimit="10.0"><path d="M 634.9706,550.0000 v -2.0000 "/></g><g stroke-linejoin="miter" stroke-opacity="1.0" fill-opacity="0.0" stroke="rgb(0,0,0)" stroke-width="0.9999999999999997" fill="rgb(0,0,0)" stroke-linecap="butt" stroke-miterlimit="10.0"><path d="M 647.4831,550.0000 v -2.0000 "/></g><g stroke-linejoin="miter" stroke-opacity="1.0" fill-opacity="0.0" stroke="rgb(0,0,0)" stroke-width="0.9999999999999997" fill="rgb(0,0,0)" stroke-linecap="butt" stroke-miterlimit="10.0"><path d="M 659.9956,550.0000 v -2.0000 "/></g><g stroke-linejoin="miter" stroke-opacity="1.0" fill-opacity="0.0" stroke="rgb(0,0,0)" stroke-width="0.9999999999999997" fill="rgb(0,0,0)" stroke-linecap="butt" stroke-miterlimit="10.0"><path d="M 672.5081,550.0000 v -2.0000 "/></g><g stroke-linejoin="miter" stroke-opacity="1.0" fill-opacity="0.0" stroke="rgb(0,0,0)" stroke-width="0.9999999999999997" fill="rgb(0,0,0)" stroke-linecap="butt" stroke-miterlimit="10.0"><path d="M 685.0207,550.0000 v -2.0000 "/></g><g stroke-linejoin="miter" stroke-opacity="1.0" fill-opacity="0.0" stroke="rgb(0,0,0)" stroke-width="0.9999999999999997" fill="rgb(0,0,0)" stroke-linecap="butt" stroke-miterlimit="10.0"><path d="M 697.5332,550.0000 v -2.0000 "/></g><g stroke-linejoin="miter" stroke-opacity="1.0" fill-opacity="0.0" stroke="rgb(0,0,0)" stroke-width="0.9999999999999997" fill="rgb(0,0,0)" stroke-linecap="butt" stroke-miterlimit="10.0"><path d="M 710.0457,550.0000 v -2.0000 "/></g><g stroke-linejoin="miter" stroke-opacity="1.0" fill-opacity="0.0" stroke="rgb(0,0,0)" stroke-width="0.9999999999999997" fill="rgb(0,0,0)" stroke-linecap="butt" stroke-miterlimit="10.0"><path d="M 722.5582,550.0000 v -2.0000 "/></g><g stroke-linejoin="miter" stroke-opacity="1.0" fill-opacity="0.0" stroke="rgb(0,0,0)" stroke-width="0.9999999999999997" fill="rgb(0,0,0)" stroke-linecap="butt" stroke-miterlimit="10.0"><path d="M 735.0707,550.0000 v -2.0000 "/></g><g stroke-linejoin="miter" stroke-opacity="1.0" fill-opacity="0.0" stroke="rgb(0,0,0)" stroke-width="0.9999999999999997" fill="rgb(0,0,0)" stroke-linecap="butt" stroke-miterlimit="10.0"><path d="M 747.5832,550.0000 v -2.0000 "/></g><g stroke-linejoin="miter" stroke-opacity="1.0" fill-opacity="0.0" stroke="rgb(0,0,0)" stroke-width="0.9999999999999997" fill="rgb(0,0,0)" stroke-linecap="butt" stroke-miterlimit="10.0"><path d="M 760.0958,550.0000 v -2.0000 "/></g><g stroke-linejoin="miter" stroke-opacity="1.0" fill-opacity="0.0" stroke="rgb(0,0,0)" stroke-width="0.9999999999999997" fill="rgb(0,0,0)" stroke-linecap="butt" stroke-miterlimit="10.0"><path d="M 772.6083,550.0000 v -2.0000 "/></g><g stroke-linejoin="miter" stroke-opacity="1.0" fill-opacity="0.0" stroke="rgb(0,0,0)" stroke-width="0.9999999999999997" fill="rgb(0,0,0)" stroke-linecap="butt" stroke-miterlimit="10.0"><path d="M 785.1208,550.0000 v -2.0000 "/></g><g stroke-linejoin="miter" stroke-opacity="1.0" fill-opacity="0.0" stroke="rgb(0,0,0)" stroke-width="0.9999999999999997" fill="rgb(0,0,0)" stroke-linecap="butt" stroke-miterlimit="10.0"><path d="M 34.3697,550.0000 v -5.0000 "/></g><g stroke-linejoin="miter" stroke-opacity="1.0" fill-opacity="0.0" stroke="rgb(0,0,0)" stroke-width="0.9999999999999997" fill="rgb(0,0,0)" stroke-linecap="butt" stroke-miterlimit="10.0"><path d="M 159.4949,550.0000 v -5.0000 "/></g><g stroke-linejoin="miter" stroke-opacity="1.0" fill-opacity="0.0" stroke="rgb(0,0,0)" stroke-width="0.9999999999999997" fill="rgb(0,0,0)" stroke-linecap="butt" stroke-miterlimit="10.0"><path d="M 284.6201,550.0000 v -5.0000 "/></g><g stroke-linejoin="miter" stroke-opacity="1.0" fill-opacity="0.0" stroke="rgb(0,0,0)" stroke-width="0.9999999999999997" fill="rgb(0,0,0)" stroke-linecap="butt" stroke-miterlimit="10.0"><path d="M 409.7453,550.0000 v -5.0000 "/></g><g stroke-linejoin="miter" stroke-opacity="1.0" fill-opacity="0.0" stroke="rgb(0,0,0)" stroke-width="0.9999999999999997" fill="rgb(0,0,0)" stroke-linecap="butt" stroke-miterlimit="10.0"><path d="M 534.8704,550.0000 v -5.0000 "/></g><g stroke-linejoin="miter" stroke-opacity="1.0" fill-opacity="0.0" stroke="rgb(0,0,0)" stroke-width="0.9999999999999997" fill="rgb(0,0,0)" stroke-linecap="butt" stroke-miterlimit="10.0"><path d="M 659.9956,550.0000 v -5.0000 "/></g><g stroke-linejoin="miter" stroke-opacity="1.0" fill-opacity="0.0" stroke="rgb(0,0,0)" stroke-width="0.9999999999999997" fill="rgb(0,0,0)" stroke-linecap="butt" stroke-miterlimit="10.0"><path d="M 785.1208,550.0000 v -5.0000 "/></g><g stroke-linejoin="bevel" stroke-opacity="0.0" fill-opacity="1.0" stroke="rgb(0,0,0)" stroke-width="0.0" fill="rgb(0,0,0)" stroke-linecap="butt" stroke-miterlimit="10.0"><path d="M 29.8162,570.0000 ZM 30.6460,569.2857 h 1.5336 v -4.9370 h -1.2185 v -0.5567 c 0.4622,-0.0840 0.8036,-0.2048 0.8036 -0.2048c 0.3414,-0.1208 0.6145,-0.2889 0.6145 -0.2889h 0.6618 v 5.9874 h 1.3866 v 0.7143 h -3.7815 v -0.7143 ZM 35.0368,570.0000 ZM 35.7195,568.6450 c 0.2941,0.3046 0.6985,0.5357 0.6985 0.5357c 0.4044,0.2311 0.9926,0.2311 0.9926 0.2311c 0.3046,0.0000 0.5725,-0.1103 0.5725 -0.1103c 0.2679,-0.1103 0.4674,-0.3099 0.4674 -0.3099c 0.1996,-0.1996 0.3151,-0.4832 0.3151 -0.4832c 0.1155,-0.2836 0.1155,-0.6303 0.1155 -0.6303c 0.0000,-0.6933 -0.3887,-1.0819 -0.3887 -1.0819c -0.3887,-0.3887 -1.0399,-0.3887 -1.0399 -0.3887c -0.3466,-0.0000 -0.5935,0.1050 -0.5935 0.1050c -0.2468,0.1050 -0.5515,0.3046 -0.5515 0.3046l -0.4622,-0.2941 l 0.2206,-3.2248 h 3.3508 v 0.7458 h -2.5945 l -0.1786,1.9853 c 0.2416,-0.1261 0.4832,-0.1996 0.4832 -0.1996c 0.2416,-0.0735 0.5462,-0.0735 0.5462 -0.0735c 0.4307,0.0000 0.8088,0.1261 0.8088 0.1261c 0.3782,0.1261 0.6618,0.3834 0.6618 0.3834c 0.2836,0.2574 0.4464,0.6513 0.4464 0.6513c 0.1628,0.3939 0.1628,0.9401 0.1628 0.9401c 0.0000,0.5462 -0.1891,0.9664 -0.1891 0.9664c -0.1891,0.4202 -0.5042,0.7090 -0.5042 0.7090c -0.3151,0.2889 -0.7195,0.4412 -0.7195 0.4412c -0.4044,0.1523 -0.8456,0.1523 -0.8456 0.1523c -0.3992,-0.0000 -0.7300,-0.0788 -0.7300 -0.0788c -0.3309,-0.0788 -0.5987,-0.2048 -0.5987 -0.2048c -0.2679,-0.1261 -0.4832,-0.2889 -0.4832 -0.2889c -0.2153,-0.1628 -0.3834,-0.3414 -0.3834 -0.3414Z"/></g><g stroke-linejoin="bevel" stroke-opacity="0.0" fill-opacity="1.0" stroke="rgb(0,0,0)" stroke-width="0.0" fill="rgb(0,0,0)" stroke-linecap="butt" stroke-miterlimit="10.0"><path d="M 154.6945,570.0000 ZM 155.1147,569.4853 c 0.7563,-0.7563 1.3445,-1.3655 1.3445 -1.3655c 0.5882,-0.6092 0.9874,-1.1292 0.9874 -1.1292c 0.3992,-0.5200 0.6092,-0.9559 0.6092 -0.9559c 0.2101,-0.4359 0.2101,-0.8456 0.2101 -0.8456c 0.0000,-0.5777 -0.3151,-0.9454 -0.3151 -0.9454c -0.3151,-0.3676 -0.9559,-0.3676 -0.9559 -0.3676c -0.4202,-0.0000 -0.7773,0.2363 -0.7773 0.2363c -0.3571,0.2363 -0.6513,0.5725 -0.6513 0.5725l -0.4937,-0.4937 c 0.4202,-0.4622 0.8929,-0.7405 0.8929 -0.7405c 0.4727,-0.2784 1.1345,-0.2784 1.1345 -0.2784c 0.9349,0.0000 1.4706,0.5410 1.4706 0.5410c 0.5357,0.5410 0.5357,1.4338 0.5357 1.4338c 0.0000,0.4727 -0.2048,0.9506 -0.2048 0.9506c -0.2048,0.4779 -0.5672,0.9874 -0.5672 0.9874c -0.3624,0.5095 -0.8613,1.0609 -0.8613 1.0609c -0.4989,0.5515 -1.0977,1.1712 -1.0977 1.1712c 0.2731,-0.0210 0.5672,-0.0420 0.5672 -0.0420c 0.2941,-0.0210 0.5567,-0.0210 0.5567 -0.0210h 1.9433 v 0.7458 h -4.3277 v -0.5147 ZM 159.9151,570.0000 ZM 162.5306,570.1261 c -1.0189,-0.0000 -1.5861,-0.9034 -1.5861 -0.9034c -0.5672,-0.9034 -0.5672,-2.5945 -0.5672 -2.5945c 0.0000,-1.6912 0.5672,-2.5735 0.5672 -2.5735c 0.5672,-0.8824 1.5861,-0.8824 1.5861 -0.8824c 1.0084,0.0000 1.5756,0.8824 1.5756 0.8824c 0.5672,0.8824 0.5672,2.5735 0.5672 2.5735c 0.0000,1.6912 -0.5672,2.5945 -0.5672 2.5945c -0.5672,0.9034 -1.5756,0.9034 -1.5756 0.9034ZM 162.5306,570.1261 ZM 162.5306,569.4328 c 0.2941,0.0000 0.5305,-0.1628 0.5305 -0.1628c 0.2363,-0.1628 0.4097,-0.5042 0.4097 -0.5042c 0.1733,-0.3414 0.2679,-0.8718 0.2679 -0.8718c 0.0945,-0.5305 0.0945,-1.2658 0.0945 -1.2658c 0.0000,-0.7353 -0.0945,-1.2605 -0.0945 -1.2605c -0.0945,-0.5252 -0.2679,-0.8561 -0.2679 -0.8561c -0.1733,-0.3309 -0.4097,-0.4884 -0.4097 -0.4884c -0.2363,-0.1576 -0.5305,-0.1576 -0.5305 -0.1576c -0.2941,-0.0000 -0.5357,0.1576 -0.5357 0.1576c -0.2416,0.1576 -0.4149,0.4884 -0.4149 0.4884c -0.1733,0.3309 -0.2679,0.8561 -0.2679 0.8561c -0.0945,0.5252 -0.0945,1.2605 -0.0945 1.2605c 0.0000,1.4706 0.3624,2.1376 0.3624 2.1376c 0.3624,0.6670 0.9506,0.6670 0.9506 0.6670Z"/></g><g stroke-linejoin="bevel" stroke-opacity="0.0" fill-opacity="1.0" stroke="rgb(0,0,0)" stroke-width="0.0" fill="rgb(0,0,0)" stroke-linecap="butt" stroke-miterlimit="10.0"><path d="M 279.8407,570.0000 ZM 280.2609,569.4853 c 0.7563,-0.7563 1.3445,-1.3655 1.3445 -1.3655c 0.5882,-0.6092 0.9874,-1.1292 0.9874 -1.1292c 0.3992,-0.5200 0.6092,-0.9559 0.6092 -0.9559c 0.2101,-0.4359 0.2101,-0.8456 0.2101 -0.8456c 0.0000,-0.5777 -0.3151,-0.9454 -0.3151 -0.9454c -0.3151,-0.3676 -0.9559,-0.3676 -0.9559 -0.3676c -0.4202,-0.0000 -0.7773,0.2363 -0.7773 0.2363c -0.3571,0.2363 -0.6513,0.5725 -0.6513 0.5725l -0.4937,-0.4937 c 0.4202,-0.4622 0.8929,-0.7405 0.8929 -0.7405c 0.4727,-0.2784 1.1345,-0.2784 1.1345 -0.2784c 0.9349,0.0000 1.4706,0.5410 1.4706 0.5410c 0.5357,0.5410 0.5357,1.4338 0.5357 1.4338c 0.0000,0.4727 -0.2048,0.9506 -0.2048 0.9506c -0.2048,0.4779 -0.5672,0.9874 -0.5672 0.9874c -0.3624,0.5095 -0.8613,1.0609 -0.8613 1.0609c -0.4989,0.5515 -1.0977,1.1712 -1.0977 1.1712c 0.2731,-0.0210 0.5672,-0.0420 0.5672 -0.0420c 0.2941,-0.0210 0.5567,-0.0210 0.5567 -0.0210h 1.9433 v 0.7458 h -4.3277 v -0.5147 ZM 285.0613,570.0000 ZM 285.7440,568.6450 c 0.2941,0.3046 0.6985,0.5357 0.6985 0.5357c 0.4044,0.2311 0.9926,0.2311 0.9926 0.2311c 0.3046,0.0000 0.5725,-0.1103 0.5725 -0.1103c 0.2679,-0.1103 0.4674,-0.3099 0.4674 -0.3099c 0.1996,-0.1996 0.3151,-0.4832 0.3151 -0.4832c 0.1155,-0.2836 0.1155,-0.6303 0.1155 -0.6303c 0.0000,-0.6933 -0.3887,-1.0819 -0.3887 -1.0819c -0.3887,-0.3887 -1.0399,-0.3887 -1.0399 -0.3887c -0.3466,-0.0000 -0.5935,0.1050 -0.5935 0.1050c -0.2468,0.1050 -0.5515,0.3046 -0.5515 0.3046l -0.4622,-0.2941 l 0.2206,-3.2248 h 3.3508 v 0.7458 h -2.5945 l -0.1786,1.9853 c 0.2416,-0.1261 0.4832,-0.1996 0.4832 -0.1996c 0.2416,-0.0735 0.5462,-0.0735 0.5462 -0.0735c 0.4307,0.0000 0.8088,0.1261 0.8088 0.1261c 0.3782,0.1261 0.6618,0.3834 0.6618 0.3834c 0.2836,0.2574 0.4464,0.6513 0.4464 0.6513c 0.1628,0.3939 0.1628,0.9401 0.1628 0.9401c 0.0000,0.5462 -0.1891,0.9664 -0.1891 0.9664c -0.1891,0.4202 -0.5042,0.7090 -0.5042 0.7090c -0.3151,0.2889 -0.7195,0.4412 -0.7195 0.4412c -0.4044,0.1523 -0.8456,0.1523 -0.8456 0.1523c -0.3992,-0.0000 -0.7300,-0.0788 -0.7300 -0.0788c -0.3309,-0.0788 -0.5987,-0.2048 -0.5987 -0.2048c -0.2679,-0.1261 -0.4832,-0.2889 -0.4832 -0.2889c -0.2153,-0.1628 -0.3834,-0.3414 -0.3834 -0.3414Z"/></g><g stroke-linejoin="bevel" stroke-opacity="0.0" fill-opacity="1.0" stroke="rgb(0,0,0)" stroke-width="0.0" fill="rgb(0,0,0)" stroke-linecap="butt" stroke-miterlimit="10.0"><path d="M 404.8923,570.0000 ZM 405.6066,568.6134 c 0.3046,0.3151 0.7090,0.5567 0.7090 0.5567c 0.4044,0.2416 1.0032,0.2416 1.0032 0.2416c 0.6092,0.0000 0.9979,-0.3309 0.9979 -0.3309c 0.3887,-0.3309 0.3887,-0.8981 0.3887 -0.8981c 0.0000,-0.2941 -0.1103,-0.5410 -0.1103 -0.5410c -0.1103,-0.2468 -0.3624,-0.4254 -0.3624 -0.4254c -0.2521,-0.1786 -0.6618,-0.2731 -0.6618 -0.2731c -0.4097,-0.0945 -1.0084,-0.0945 -1.0084 -0.0945v -0.6618 c 0.5357,0.0000 0.8981,-0.0945 0.8981 -0.0945c 0.3624,-0.0945 0.5882,-0.2626 0.5882 -0.2626c 0.2258,-0.1681 0.3204,-0.3992 0.3204 -0.3992c 0.0945,-0.2311 0.0945,-0.4937 0.0945 -0.4937c 0.0000,-0.4937 -0.3099,-0.7773 -0.3099 -0.7773c -0.3099,-0.2836 -0.8456,-0.2836 -0.8456 -0.2836c -0.4202,-0.0000 -0.7721,0.1891 -0.7721 0.1891c -0.3519,0.1891 -0.6565,0.4937 -0.6565 0.4937l -0.4622,-0.5462 c 0.3887,-0.3676 0.8561,-0.6040 0.8561 -0.6040c 0.4674,-0.2363 1.0662,-0.2363 1.0662 -0.2363c 0.4412,0.0000 0.8088,0.1155 0.8088 0.1155c 0.3676,0.1155 0.6355,0.3309 0.6355 0.3309c 0.2679,0.2153 0.4149,0.5305 0.4149 0.5305c 0.1471,0.3151 0.1471,0.7248 0.1471 0.7248c 0.0000,0.6092 -0.3361,0.9979 -0.3361 0.9979c -0.3361,0.3887 -0.8824,0.5987 -0.8824 0.5987v 0.0420 c 0.3046,0.0735 0.5672,0.2153 0.5672 0.2153c 0.2626,0.1418 0.4622,0.3571 0.4622 0.3571c 0.1996,0.2153 0.3099,0.4989 0.3099 0.4989c 0.1103,0.2836 0.1103,0.6303 0.1103 0.6303c 0.0000,0.4412 -0.1733,0.7983 -0.1733 0.7983c -0.1733,0.3571 -0.4727,0.6040 -0.4727 0.6040c -0.2994,0.2468 -0.6985,0.3782 -0.6985 0.3782c -0.3992,0.1313 -0.8613,0.1313 -0.8613 0.1313c -0.3992,-0.0000 -0.7300,-0.0788 -0.7300 -0.0788c -0.3309,-0.0788 -0.6040,-0.2101 -0.6040 -0.2101c -0.2731,-0.1313 -0.4884,-0.2994 -0.4884 -0.2994c -0.2153,-0.1681 -0.3834,-0.3571 -0.3834 -0.3571ZM 410.1129,570.0000 ZM 412.7285,570.1261 c -1.0189,-0.0000 -1.5861,-0.9034 -1.5861 -0.9034c -0.5672,-0.9034 -0.5672,-2.5945 -0.5672 -2.5945c 0.0000,-1.6912 0.5672,-2.5735 0.5672 -2.5735c 0.5672,-0.8824 1.5861,-0.8824 1.5861 -0.8824c 1.0084,0.0000 1.5756,0.8824 1.5756 0.8824c 0.5672,0.8824 0.5672,2.5735 0.5672 2.5735c 0.0000,1.6912 -0.5672,2.5945 -0.5672 2.5945c -0.5672,0.9034 -1.5756,0.9034 -1.5756 0.9034ZM 412.7285,570.1261 ZM 412.7285,569.4328 c 0.2941,0.0000 0.5305,-0.1628 0.5305 -0.1628c 0.2363,-0.1628 0.4097,-0.5042 0.4097 -0.5042c 0.1733,-0.3414 0.2679,-0.8718 0.2679 -0.8718c 0.0945,-0.5305 0.0945,-1.2658 0.0945 -1.2658c 0.0000,-0.7353 -0.0945,-1.2605 -0.0945 -1.2605c -0.0945,-0.5252 -0.2679,-0.8561 -0.2679 -0.8561c -0.1733,-0.3309 -0.4097,-0.4884 -0.4097 -0.4884c -0.2363,-0.1576 -0.5305,-0.1576 -0.5305 -0.1576c -0.2941,-0.0000 -0.5357,0.1576 -0.5357 0.1576c -0.2416,0.1576 -0.4149,0.4884 -0.4149 0.4884c -0.1733,0.3309 -0.2679,0.8561 -0.2679 0.8561c -0.0945,0.5252 -0.0945,1.2605 -0.0945 1.2605c 0.0000,1.4706 0.3624,2.1376 0.3624 2.1376c 0.3624,0.6670 0.9506,0.6670 0.9506 0.6670Z"/></g><g stroke-linejoin="bevel" stroke-opacity="0.0" fill-opacity="1.0" stroke="rgb(0,0,0)" stroke-width="0.0" fill="rgb(0,0,0)" stroke-linecap="butt" stroke-miterlimit="10.0"><path d="M 530.0385,570.0000 ZM 530.7528,568.6134 c 0.3046,0.3151 0.7090,0.5567 0.7090 0.5567c 0.4044,0.2416 1.0032,0.2416 1.0032 0.2416c 0.6092,0.0000 0.9979,-0.3309 0.9979 -0.3309c 0.3887,-0.3309 0.3887,-0.8981 0.3887 -0.8981c 0.0000,-0.2941 -0.1103,-0.5410 -0.1103 -0.5410c -0.1103,-0.2468 -0.3624,-0.4254 -0.3624 -0.4254c -0.2521,-0.1786 -0.6618,-0.2731 -0.6618 -0.2731c -0.4097,-0.0945 -1.0084,-0.0945 -1.0084 -0.0945v -0.6618 c 0.5357,0.0000 0.8981,-0.0945 0.8981 -0.0945c 0.3624,-0.0945 0.5882,-0.2626 0.5882 -0.2626c 0.2258,-0.1681 0.3204,-0.3992 0.3204 -0.3992c 0.0945,-0.2311 0.0945,-0.4937 0.0945 -0.4937c 0.0000,-0.4937 -0.3099,-0.7773 -0.3099 -0.7773c -0.3099,-0.2836 -0.8456,-0.2836 -0.8456 -0.2836c -0.4202,-0.0000 -0.7721,0.1891 -0.7721 0.1891c -0.3519,0.1891 -0.6565,0.4937 -0.6565 0.4937l -0.4622,-0.5462 c 0.3887,-0.3676 0.8561,-0.6040 0.8561 -0.6040c 0.4674,-0.2363 1.0662,-0.2363 1.0662 -0.2363c 0.4412,0.0000 0.8088,0.1155 0.8088 0.1155c 0.3676,0.1155 0.6355,0.3309 0.6355 0.3309c 0.2679,0.2153 0.4149,0.5305 0.4149 0.5305c 0.1471,0.3151 0.1471,0.7248 0.1471 0.7248c 0.0000,0.6092 -0.3361,0.9979 -0.3361 0.9979c -0.3361,0.3887 -0.8824,0.5987 -0.8824 0.5987v 0.0420 c 0.3046,0.0735 0.5672,0.2153 0.5672 0.2153c 0.2626,0.1418 0.4622,0.3571 0.4622 0.3571c 0.1996,0.2153 0.3099,0.4989 0.3099 0.4989c 0.1103,0.2836 0.1103,0.6303 0.1103 0.6303c 0.0000,0.4412 -0.1733,0.7983 -0.1733 0.7983c -0.1733,0.3571 -0.4727,0.6040 -0.4727 0.6040c -0.2994,0.2468 -0.6985,0.3782 -0.6985 0.3782c -0.3992,0.1313 -0.8613,0.1313 -0.8613 0.1313c -0.3992,-0.0000 -0.7300,-0.0788 -0.7300 -0.0788c -0.3309,-0.0788 -0.6040,-0.2101 -0.6040 -0.2101c -0.2731,-0.1313 -0.4884,-0.2994 -0.4884 -0.2994c -0.2153,-0.1681 -0.3834,-0.3571 -0.3834 -0.3571ZM 535.2591,570.0000 ZM 535.9419,568.6450 c 0.2941,0.3046 0.6985,0.5357 0.6985 0.5357c 0.4044,0.2311 0.9926,0.2311 0.9926 0.2311c 0.3046,0.0000 0.5725,-0.1103 0.5725 -0.1103c 0.2679,-0.1103 0.4674,-0.3099 0.4674 -0.3099c 0.1996,-0.1996 0.3151,-0.4832 0.3151 -0.4832c 0.1155,-0.2836 0.1155,-0.6303 0.1155 -0.6303c 0.0000,-0.6933 -0.3887,-1.0819 -0.3887 -1.0819c -0.3887,-0.3887 -1.0399,-0.3887 -1.0399 -0.3887c -0.3466,-0.0000 -0.5935,0.1050 -0.5935 0.1050c -0.2468,0.1050 -0.5515,0.3046 -0.5515 0.3046l -0.4622,-0.2941 l 0.2206,-3.2248 h 3.3508 v 0.7458 h -2.5945 l -0.1786,1.9853 c 0.2416,-0.1261 0.4832,-0.1996 0.4832 -0.1996c 0.2416,-0.0735 0.5462,-0.0735 0.5462 -0.0735c 0.4307,0.0000 0.8088,0.1261 0.8088 0.1261c 0.3782,0.1261 0.6618,0.3834 0.6618 0.3834c 0.2836,0.2574 0.4464,0.6513 0.4464 0.6513c 0.1628,0.3939 0.1628,0.9401 0.1628 0.9401c 0.0000,0.5462 -0.1891,0.9664 -0.1891 0.9664c -0.1891,0.4202 -0.5042,0.7090 -0.5042 0.7090c -0.3151,0.2889 -0.7195,0.4412 -0.7195 0.4412c -0.4044,0.1523 -0.8456,0.1523 -0.8456 0.1523c -0.3992,-0.0000 -0.7300,-0.0788 -0.7300 -0.0788c -0.3309,-0.0788 -0.5987,-0.2048 -0.5987 -0.2048c -0.2679,-0.1261 -0.4832,-0.2889 -0.4832 -0.2889c -0.2153,-0.1628 -0.3834,-0.3414 -0.3834 -0.3414Z"/></g><g stroke-linejoin="bevel" stroke-opacity="0.0" fill-opacity="1.0" stroke="rgb(0,0,0)" stroke-width="0.0" fill="rgb(0,0,0)" stroke-linecap="butt" stroke-miterlimit="10.0"><path d="M 655.0954,570.0000 ZM 658.2887,567.4580 v -1.9433 c 0.0000,-0.2731 0.0158,-0.6460 0.0158 -0.6460c 0.0158,-0.3729 0.0368,-0.6460 0.0368 -0.6460h -0.0420 c -0.1261,0.2416 -0.2626,0.4727 -0.2626 0.4727c -0.1366,0.2311 -0.2836,0.4727 -0.2836 0.4727l -1.5651,2.2899 h 2.1008 ZM 658.2887,567.4580 ZM 660.0219,568.1513 h -0.9139 v 1.8487 h -0.8193 v -1.8487 h -3.0147 v -0.5672 l 2.8676,-4.2857 h 0.9664 v 4.1597 h 0.9139 v 0.6933 ZM 660.3160,570.0000 ZM 662.9315,570.1261 c -1.0189,-0.0000 -1.5861,-0.9034 -1.5861 -0.9034c -0.5672,-0.9034 -0.5672,-2.5945 -0.5672 -2.5945c 0.0000,-1.6912 0.5672,-2.5735 0.5672 -2.5735c 0.5672,-0.8824 1.5861,-0.8824 1.5861 -0.8824c 1.0084,0.0000 1.5756,0.8824 1.5756 0.8824c 0.5672,0.8824 0.5672,2.5735 0.5672 2.5735c 0.0000,1.6912 -0.5672,2.5945 -0.5672 2.5945c -0.5672,0.9034 -1.5756,0.9034 -1.5756 0.9034ZM 662.9315,570.1261 ZM 662.9315,569.4328 c 0.2941,0.0000 0.5305,-0.1628 0.5305 -0.1628c 0.2363,-0.1628 0.4097,-0.5042 0.4097 -0.5042c 0.1733,-0.3414 0.2679,-0.8718 0.2679 -0.8718c 0.0945,-0.5305 0.0945,-1.2658 0.0945 -1.2658c 0.0000,-0.7353 -0.0945,-1.2605 -0.0945 -1.2605c -0.0945,-0.5252 -0.2679,-0.8561 -0.2679 -0.8561c -0.1733,-0.3309 -0.4097,-0.4884 -0.4097 -0.4884c -0.2363,-0.1576 -0.5305,-0.1576 -0.5305 -0.1576c -0.2941,-0.0000 -0.5357,0.1576 -0.5357 0.1576c -0.2416,0.1576 -0.4149,0.4884 -0.4149 0.4884c -0.1733,0.3309 -0.2679,0.8561 -0.2679 0.8561c -0.0945,0.5252 -0.0945,1.2605 -0.0945 1.2605c 0.0000,1.4706 0.3624,2.1376 0.3624 2.1376c 0.3624,0.6670 0.9506,0.6670 0.9506 0.6670Z"/></g><g stroke-linejoin="bevel" stroke-opacity="0.0" fill-opacity="1.0" stroke="rgb(0,0,0)" stroke-width="0.0" fill="rgb(0,0,0)" stroke-linecap="butt" stroke-miterlimit="10.0"><path d="M 780.2416,570.0000 ZM 783.4349,567.4580 v -1.9433 c 0.0000,-0.2731 0.0158,-0.6460 0.0158 -0.6460c 0.0158,-0.3729 0.0368,-0.6460 0.0368 -0.6460h -0.0420 c -0.1261,0.2416 -0.2626,0.4727 -0.2626 0.4727c -0.1366,0.2311 -0.2836,0.4727 -0.2836 0.4727l -1.5651,2.2899 h 2.1008 ZM 783.4349,567.4580 ZM 785.1681,568.1513 h -0.9139 v 1.8487 h -0.8193 v -1.8487 h -3.0147 v -0.5672 l 2.8676,-4.2857 h 0.9664 v 4.1597 h 0.9139 v 0.6933 ZM 785.4622,570.0000 ZM 786.1450,568.6450 c 0.2941,0.3046 0.6985,0.5357 0.6985 0.5357c 0.4044,0.2311 0.9926,0.2311 0.9926 0.2311c 0.3046,0.0000 0.5725,-0.1103 0.5725 -0.1103c 0.2679,-0.1103 0.4674,-0.3099 0.4674 -0.3099c 0.1996,-0.1996 0.3151,-0.4832 0.3151 -0.4832c 0.1155,-0.2836 0.1155,-0.6303 0.1155 -0.6303c 0.0000,-0.6933 -0.3887,-1.0819 -0.3887 -1.0819c -0.3887,-0.3887 -1.0399,-0.3887 -1.0399 -0.3887c -0.3466,-0.0000 -0.5935,0.1050 -0.5935 0.1050c -0.2468,0.1050 -0.5515,0.3046 -0.5515 0.3046l -0.4622,-0.2941 l 0.2206,-3.2248 h 3.3508 v 0.7458 h -2.5945 l -0.1786,1.9853 c 0.2416,-0.1261 0.4832,-0.1996 0.4832 -0.1996c 0.2416,-0.0735 0.5462,-0.0735 0.5462 -0.0735c 0.4307,0.0000 0.8088,0.1261 0.8088 0.1261c 0.3782,0.1261 0.6618,0.3834 0.6618 0.3834c 0.2836,0.2574 0.4464,0.6513 0.4464 0.6513c 0.1628,0.3939 0.1628,0.9401 0.1628 0.9401c 0.0000,0.5462 -0.1891,0.9664 -0.1891 0.9664c -0.1891,0.4202 -0.5042,0.7090 -0.5042 0.7090c -0.3151,0.2889 -0.7195,0.4412 -0.7195 0.4412c -0.4044,0.1523 -0.8456,0.1523 -0.8456 0.1523c -0.3992,-0.0000 -0.7300,-0.0788 -0.7300 -0.0788c -0.3309,-0.0788 -0.5987,-0.2048 -0.5987 -0.2048c -0.2679,-0.1261 -0.4832,-0.2889 -0.4832 -0.2889c -0.2153,-0.1628 -0.3834,-0.3414 -0.3834 -0.3414Z"/></g><g stroke-linejoin="round" stroke-opacity="1.0" fill-opacity="0.0" stroke="rgb(0,0,255)" stroke-width="0.9999999999999997" fill="rgb(0,0,0)" stroke-linecap="round" stroke-miterlimit="10.0"><path d="M 10.0000,585.0000 h 20.0000 "/></g><g stroke-linejoin="bevel" stroke-opacity="0.0" fill-opacity="1.0" stroke="rgb(0,0,0)" stroke-width="0.0" fill="rgb(0,0,0)" stroke-linecap="butt" stroke-miterlimit="10.0"><path d="M 35.0735,586.6071 ZM 35.7983,585.4517 c 0.3361,0.2731 0.6880,0.4412 0.6880 0.4412c 0.3519,0.1681 0.8141,0.1681 0.8141 0.1681c 0.5042,0.0000 0.7563,-0.2311 0.7563 -0.2311c 0.2521,-0.2311 0.2521,-0.5672 0.2521 -0.5672c 0.0000,-0.1996 -0.1050,-0.3466 -0.1050 -0.3466c -0.1050,-0.1471 -0.2679,-0.2574 -0.2679 -0.2574c -0.1628,-0.1103 -0.3729,-0.1943 -0.3729 -0.1943l -0.4202,-0.1681 c -0.2731,-0.0945 -0.5462,-0.2153 -0.5462 -0.2153c -0.2731,-0.1208 -0.4884,-0.2941 -0.4884 -0.2941c -0.2153,-0.1733 -0.3519,-0.4044 -0.3519 -0.4044c -0.1366,-0.2311 -0.1366,-0.5567 -0.1366 -0.5567c 0.0000,-0.3046 0.1208,-0.5725 0.1208 -0.5725c 0.1208,-0.2679 0.3466,-0.4622 0.3466 -0.4622c 0.2258,-0.1943 0.5515,-0.3046 0.5515 -0.3046c 0.3256,-0.1103 0.7353,-0.1103 0.7353 -0.1103c 0.4832,0.0000 0.8876,0.1681 0.8876 0.1681c 0.4044,0.1681 0.6985,0.4097 0.6985 0.4097l -0.4097,0.5462 c -0.2626,-0.1996 -0.5462,-0.3256 -0.5462 -0.3256c -0.2836,-0.1261 -0.6197,-0.1261 -0.6197 -0.1261c -0.4832,-0.0000 -0.7090,0.2206 -0.7090 0.2206c -0.2258,0.2206 -0.2258,0.5147 -0.2258 0.5147c 0.0000,0.1786 0.0945,0.3099 0.0945 0.3099c 0.0945,0.1313 0.2521,0.2311 0.2521 0.2311c 0.1576,0.0998 0.3624,0.1786 0.3624 0.1786c 0.2048,0.0788 0.4254,0.1628 0.4254 0.1628c 0.2731,0.1050 0.5515,0.2206 0.5515 0.2206c 0.2784,0.1155 0.4989,0.2889 0.4989 0.2889c 0.2206,0.1733 0.3624,0.4254 0.3624 0.4254c 0.1418,0.2521 0.1418,0.6092 0.1418 0.6092c 0.0000,0.3151 -0.1208,0.5882 -0.1208 0.5882c -0.1208,0.2731 -0.3571,0.4832 -0.3571 0.4832c -0.2363,0.2101 -0.5882,0.3309 -0.5882 0.3309c -0.3519,0.1208 -0.8036,0.1208 -0.8036 0.1208c -0.5462,-0.0000 -1.0399,-0.1996 -1.0399 -0.1996c -0.4937,-0.1996 -0.8613,-0.5042 -0.8613 -0.5042ZM 39.4748,586.6071 ZM 39.9580,584.0651 c 0.0000,-0.6408 0.1943,-1.1397 0.1943 -1.1397c 0.1943,-0.4989 0.5200,-0.8456 0.5200 -0.8456c 0.3256,-0.3466 0.7511,-0.5252 0.7511 -0.5252c 0.4254,-0.1786 0.8981,-0.1786 0.8981 -0.1786c 0.4727,0.0000 0.8981,0.1786 0.8981 0.1786c 0.4254,0.1786 0.7511,0.5252 0.7511 0.5252c 0.3256,0.3466 0.5200,0.8456 0.5200 0.8456c 0.1943,0.4989 0.1943,1.1397 0.1943 1.1397c 0.0000,0.6303 -0.1943,1.1292 -0.1943 1.1292c -0.1943,0.4989 -0.5200,0.8403 -0.5200 0.8403c -0.3256,0.3414 -0.7511,0.5200 -0.7511 0.5200c -0.4254,0.1786 -0.8981,0.1786 -0.8981 0.1786c -0.4727,-0.0000 -0.8981,-0.1786 -0.8981 -0.1786c -0.4254,-0.1786 -0.7511,-0.5200 -0.7511 -0.5200c -0.3256,-0.3414 -0.5200,-0.8403 -0.5200 -0.8403c -0.1943,-0.4989 -0.1943,-1.1292 -0.1943 -1.1292ZM 39.9580,584.0651 ZM 40.8508,584.0651 c 0.0000,0.4412 0.1050,0.7983 0.1050 0.7983c 0.1050,0.3571 0.2994,0.6145 0.2994 0.6145c 0.1943,0.2574 0.4674,0.3992 0.4674 0.3992c 0.2731,0.1418 0.5987,0.1418 0.5987 0.1418c 0.3256,0.0000 0.5987,-0.1418 0.5987 -0.1418c 0.2731,-0.1418 0.4674,-0.3992 0.4674 -0.3992c 0.1943,-0.2574 0.2994,-0.6145 0.2994 -0.6145c 0.1050,-0.3571 0.1050,-0.7983 0.1050 -0.7983c 0.0000,-0.4412 -0.1050,-0.8036 -0.1050 -0.8036c -0.1050,-0.3624 -0.2994,-0.6250 -0.2994 -0.6250c -0.1943,-0.2626 -0.4674,-0.4044 -0.4674 -0.4044c -0.2731,-0.1418 -0.5987,-0.1418 -0.5987 -0.1418c -0.3256,-0.0000 -0.5987,0.1418 -0.5987 0.1418c -0.2731,0.1418 -0.4674,0.4044 -0.4674 0.4044c -0.1943,0.2626 -0.2994,0.6250 -0.2994 0.6250c -0.1050,0.3624 -0.1050,0.8036 -0.1050 0.8036ZM 45.1681,586.6071 ZM 46.0294,581.5021 h 0.7143 l 0.0735,0.7353 h 0.0315 c 0.3361,-0.3676 0.7300,-0.6145 0.7300 -0.6145c 0.3939,-0.2468 0.8561,-0.2468 0.8561 -0.2468c 0.5882,0.0000 0.9191,0.2574 0.9191 0.2574c 0.3309,0.2574 0.4884,0.7195 0.4884 0.7195c 0.3992,-0.4412 0.8036,-0.7090 0.8036 -0.7090c 0.4044,-0.2679 0.8771,-0.2679 0.8771 -0.2679c 0.7878,0.0000 1.1712,0.5042 1.1712 0.5042c 0.3834,0.5042 0.3834,1.4916 0.3834 1.4916v 3.2353 h -0.8613 v -3.1197 c 0.0000,-0.7248 -0.2311,-1.0452 -0.2311 -1.0452c -0.2311,-0.3204 -0.7143,-0.3204 -0.7143 -0.3204c -0.5777,-0.0000 -1.2815,0.7878 -1.2815 0.7878v 3.6975 h -0.8613 v -3.1197 c 0.0000,-0.7248 -0.2311,-1.0452 -0.2311 -1.0452c -0.2311,-0.3204 -0.7248,-0.3204 -0.7248 -0.3204c -0.5777,-0.0000 -1.2815,0.7878 -1.2815 0.7878v 3.6975 h -0.8613 v -5.1050 ZM 53.8761,586.6071 ZM 54.3592,584.0651 c 0.0000,-0.6303 0.1943,-1.1292 0.1943 -1.1292c 0.1943,-0.4989 0.5147,-0.8456 0.5147 -0.8456c 0.3204,-0.3466 0.7300,-0.5305 0.7300 -0.5305c 0.4097,-0.1838 0.8508,-0.1838 0.8508 -0.1838c 0.4832,0.0000 0.8666,0.1681 0.8666 0.1681c 0.3834,0.1681 0.6408,0.4832 0.6408 0.4832c 0.2574,0.3151 0.3939,0.7563 0.3939 0.7563c 0.1366,0.4412 0.1366,0.9874 0.1366 0.9874c 0.0000,0.2836 -0.0315,0.4727 -0.0315 0.4727h -3.4454 c 0.0525,0.8298 0.5095,1.3130 0.5095 1.3130c 0.4569,0.4832 1.1922,0.4832 1.1922 0.4832c 0.3676,0.0000 0.6775,-0.1103 0.6775 -0.1103c 0.3099,-0.1103 0.5935,-0.2889 0.5935 -0.2889l 0.3046,0.5672 c -0.3361,0.2101 -0.7458,0.3676 -0.7458 0.3676c -0.4097,0.1576 -0.9349,0.1576 -0.9349 0.1576c -0.5147,-0.0000 -0.9611,-0.1838 -0.9611 -0.1838c -0.4464,-0.1838 -0.7773,-0.5252 -0.7773 -0.5252c -0.3309,-0.3414 -0.5200,-0.8351 -0.5200 -0.8351c -0.1891,-0.4937 -0.1891,-1.1239 -0.1891 -1.1239ZM 54.3592,584.0651 ZM 57.9307,583.6765 c 0.0000,-0.7878 -0.3309,-1.2027 -0.3309 -1.2027c -0.3309,-0.4149 -0.9296,-0.4149 -0.9296 -0.4149c -0.2731,-0.0000 -0.5200,0.1103 -0.5200 0.1103c -0.2468,0.1103 -0.4464,0.3151 -0.4464 0.3151c -0.1996,0.2048 -0.3309,0.5042 -0.3309 0.5042c -0.1313,0.2994 -0.1733,0.6880 -0.1733 0.6880h 2.7311 ZM 61.2080,586.6071 ZM 62.0693,579.1282 h 0.8613 v 6.5126 c 0.0000,0.2101 0.0735,0.2941 0.0735 0.2941c 0.0735,0.0840 0.1681,0.0840 0.1681 0.0840h 0.0788 c 0.0000,0.0000 0.1103,-0.0210 0.1103 -0.0210l 0.1155,0.6513 c -0.0840,0.0420 -0.1996,0.0630 -0.1996 0.0630c -0.1155,0.0210 -0.2941,0.0210 -0.2941 0.0210c -0.4937,-0.0000 -0.7038,-0.2941 -0.7038 -0.2941c -0.2101,-0.2941 -0.2101,-0.8613 -0.2101 -0.8613v -6.4496 ZM 63.8866,586.6071 ZM 65.1891,580.4517 c -0.2521,-0.0000 -0.4254,-0.1576 -0.4254 -0.1576c -0.1733,-0.1576 -0.1733,-0.3992 -0.1733 -0.3992c 0.0000,-0.2521 0.1733,-0.4044 0.1733 -0.4044c 0.1733,-0.1523 0.4254,-0.1523 0.4254 -0.1523c 0.2521,0.0000 0.4254,0.1523 0.4254 0.1523c 0.1733,0.1523 0.1733,0.4044 0.1733 0.4044c 0.0000,0.2416 -0.1733,0.3992 -0.1733 0.3992c -0.1733,0.1576 -0.4254,0.1576 -0.4254 0.1576ZM 65.1891,580.4517 ZM 64.7479,581.5021 h 0.8613 v 5.1050 h -0.8613 v -5.1050 ZM 66.4706,586.6071 ZM 67.3319,581.5021 h 0.7143 l 0.0735,0.7353 h 0.0315 c 0.3676,-0.3676 0.7721,-0.6145 0.7721 -0.6145c 0.4044,-0.2468 0.9401,-0.2468 0.9401 -0.2468c 0.8088,0.0000 1.1817,0.5042 1.1817 0.5042c 0.3729,0.5042 0.3729,1.4916 0.3729 1.4916v 3.2353 h -0.8613 v -3.1197 c 0.0000,-0.7248 -0.2311,-1.0452 -0.2311 -1.0452c -0.2311,-0.3204 -0.7353,-0.3204 -0.7353 -0.3204c -0.3992,-0.0000 -0.7038,0.1996 -0.7038 0.1996c -0.3046,0.1996 -0.6933,0.5882 -0.6933 0.5882v 3.6975 h -0.8613 v -5.1050 ZM 72.2164,586.6071 ZM 72.6996,584.0651 c 0.0000,-0.6303 0.1943,-1.1292 0.1943 -1.1292c 0.1943,-0.4989 0.5147,-0.8456 0.5147 -0.8456c 0.3204,-0.3466 0.7300,-0.5305 0.7300 -0.5305c 0.4097,-0.1838 0.8508,-0.1838 0.8508 -0.1838c 0.4832,0.0000 0.8666,0.1681 0.8666 0.1681c 0.3834,0.1681 0.6408,0.4832 0.6408 0.4832c 0.2574,0.3151 0.3939,0.7563 0.3939 0.7563c 0.1366,0.4412 0.1366,0.9874 0.1366 0.9874c 0.0000,0.2836 -0.0315,0.4727 -0.0315 0.4727h -3.4454 c 0.0525,0.8298 0.5095,1.3130 0.5095 1.3130c 0.4569,0.4832 1.1922,0.4832 1.1922 0.4832c 0.3676,0.0000 0.6775,-0.1103 0.6775 -0.1103c 0.3099,-0.1103 0.5935,-0.2889 0.5935 -0.2889l 0.3046,0.5672 c -0.3361,0.2101 -0.7458,0.3676 -0.7458 0.3676c -0.4097,0.1576 -0.9349,0.1576 -0.9349 0.1576c -0.5147,-0.0000 -0.9611,-0.1838 -0.9611 -0.1838c -0.4464,-0.1838 -0.7773,-0.5252 -0.7773 -0.5252c -0.3309,-0.3414 -0.5200,-0.8351 -0.5200 -0.8351c -0.1891,-0.4937 -0.1891,-1.1239 -0.1891 -1.1239ZM 72.6996,584.0651 ZM 76.2710,583.6765 c 0.0000,-0.7878 -0.3309,-1.2027 -0.3309 -1.2027c -0.3309,-0.4149 -0.9296,-0.4149 -0.9296 -0.4149c -0.2731,-0.0000 -0.5200,0.1103 -0.5200 0.1103c -0.2468,0.1103 -0.4464,0.3151 -0.4464 0.3151c -0.1996,0.2048 -0.3309,0.5042 -0.3309 0.5042c -0.1313,0.2994 -0.1733,0.6880 -0.1733 0.6880h 2.7311 Z"/></g></svg>